<svg width="121" height="31" viewBox="0 0 121 31" fill="none" xmlns="http://www.w3.org/2000/svg">
<path d="M87.0225 13.0412V15.7904H85.2888V17.5933H87.0225V23.7193C87.0225 25.8111 87.9745 26.6478 90.3696 26.6478C90.7905 26.6478 91.1914 26.598 91.5421 26.5382V24.7552C91.2415 24.7851 91.0511 24.805 90.7204 24.805C89.6481 24.805 89.1771 24.307 89.1771 23.1715V17.5933H91.5421V15.7904H89.1771V13.0412H87.0225Z"></path>
<path d="M97.6435 26.7972C100.83 26.7972 102.784 24.6756 102.784 21.1593C102.784 17.6631 100.82 15.5314 97.6435 15.5314C94.4567 15.5314 92.4925 17.6631 92.4925 21.1593C92.4925 24.6756 94.4467 26.7972 97.6435 26.7972ZM97.6435 24.8947C95.7695 24.8947 94.7173 23.53 94.7173 21.1593C94.7173 18.8086 95.7695 17.434 97.6435 17.434C99.5074 17.434 100.57 18.8086 100.57 21.1593C100.57 23.5201 99.5074 24.8947 97.6435 24.8947Z"></path>
<path d="M104.456 26.5881H106.611V20.1832C106.611 18.6591 107.763 17.6332 109.397 17.6332C109.778 17.6332 110.419 17.7029 110.599 17.7627V15.6509C110.369 15.5912 109.958 15.5613 109.637 15.5613C108.214 15.5613 107.002 16.3382 106.691 17.4041H106.531V15.7406H104.456V26.5881Z"></path>
<path d="M115.949 17.3543C117.543 17.3543 118.585 18.4599 118.635 20.1632H113.123C113.243 18.4699 114.356 17.3543 115.949 17.3543ZM118.625 23.6595C118.224 24.5062 117.332 24.9744 116.029 24.9744C114.306 24.9744 113.193 23.7691 113.123 21.8666V21.747H120.83V21C120.83 17.5933 118.996 15.5314 115.959 15.5314C112.883 15.5314 110.929 17.7328 110.929 21.1992C110.929 24.6656 112.843 26.7972 115.969 26.7972C118.465 26.7972 120.208 25.6019 120.699 23.6595H118.625Z"></path>
<path d="M72.8931 22.5823C73.0593 25.2459 75.2924 26.9494 78.6162 26.9494C82.1685 26.9494 84.3913 25.1633 84.3913 22.3138C84.3913 20.0735 83.1241 18.8346 80.0496 18.1222L78.3981 17.7195C76.4454 17.2653 75.656 16.6562 75.656 15.5928C75.656 14.2506 76.8816 13.3731 78.7201 13.3731C80.465 13.3731 81.6699 14.23 81.888 15.6031H84.1524C84.0173 13.0943 81.7946 11.3289 78.7512 11.3289C75.4794 11.3289 73.2982 13.0943 73.2982 15.7476C73.2982 17.9364 74.5342 19.2372 77.2451 19.867L79.1771 20.3316C81.161 20.7962 82.0334 21.4776 82.0334 22.6132C82.0334 23.9347 80.6624 24.8949 78.7928 24.8949C76.7881 24.8949 75.3963 23.9967 75.1989 22.5823H72.8931Z"></path>
<path d="M50.5738 15.5613C49.0907 15.5613 47.8079 16.2984 47.1465 17.5336H46.9862V15.7406H44.9118V30.1939H47.0664V24.9445H47.2367C47.8079 26.09 49.0406 26.7673 50.5939 26.7673C53.3497 26.7673 55.1035 24.6058 55.1035 21.1593C55.1035 17.7129 53.3497 15.5613 50.5738 15.5613ZM49.9625 24.8449C48.1587 24.8449 47.0263 23.4304 47.0263 21.1693C47.0263 18.8982 48.1587 17.4838 49.9725 17.4838C51.7964 17.4838 52.8887 18.8683 52.8887 21.1593C52.8887 23.4603 51.7964 24.8449 49.9625 24.8449Z"></path>
<path d="M62.6427 15.5613C61.1595 15.5613 59.8768 16.2984 59.2154 17.5336H59.055V15.7406H56.9806V30.1939H59.1352V24.9445H59.3056C59.8768 26.09 61.1094 26.7673 62.6627 26.7673C65.4186 26.7673 67.1723 24.6058 67.1723 21.1593C67.1723 17.7129 65.4186 15.5613 62.6427 15.5613ZM62.0314 24.8449C60.2275 24.8449 59.0951 23.4304 59.0951 21.1693C59.0951 18.8982 60.2275 17.4838 62.0414 17.4838C63.8653 17.4838 64.9576 18.8683 64.9576 21.1593C64.9576 23.4603 63.8653 24.8449 62.0314 24.8449Z"></path>
<path d="M41.0461 26.5881H43.5181L38.1066 11.6902H35.6034L30.1919 26.5881H32.5809L33.9623 22.6339H39.675L41.0461 26.5881ZM36.7356 14.3952H36.9121L39.083 20.6929H34.5543L36.7356 14.3952Z"></path>
<path d="M31.6376 0.452979V7.6398H34.2481C36.4027 7.6398 37.6504 6.31997 37.6504 4.02398C37.6504 1.76284 36.3927 0.452979 34.2481 0.452979H31.6376ZM32.76 1.46899H34.1229C35.621 1.46899 36.5079 2.41528 36.5079 4.03892C36.5079 5.68745 35.6361 6.62378 34.1229 6.62378H32.76V1.46899Z"></path>
<path d="M41.4715 7.74439C43.0649 7.74439 44.0419 6.68355 44.0419 4.92544C44.0419 3.1773 43.0599 2.11148 41.4715 2.11148C39.8781 2.11148 38.896 3.1773 38.896 4.92544C38.896 6.68355 39.8731 7.74439 41.4715 7.74439ZM41.4715 6.79312C40.5345 6.79312 40.0084 6.1108 40.0084 4.92544C40.0084 3.75005 40.5345 3.06275 41.4715 3.06275C42.4035 3.06275 42.9346 3.75005 42.9346 4.92544C42.9346 6.10581 42.4035 6.79312 41.4715 6.79312Z"></path>
<path d="M52.3626 2.21607H51.2853L50.3133 6.35484H50.2281L49.1057 2.21607H48.0735L46.9511 6.35484H46.871L45.8939 2.21607H44.8016L46.3048 7.6398H47.4121L48.5345 3.64546H48.6197L49.7471 7.6398H50.8645L52.3626 2.21607Z"></path>
<path d="M53.6033 7.6398H54.6806V4.46724C54.6806 3.62056 55.1866 3.09263 55.9833 3.09263C56.78 3.09263 57.1608 3.52593 57.1608 4.39751V7.6398H58.2381V4.12857C58.2381 2.83862 57.5667 2.11148 56.3491 2.11148C55.5274 2.11148 54.9862 2.47505 54.7206 3.07769H54.6405V2.21607H53.6033V7.6398Z"></path>
<path d="M59.9347 7.6398H61.012V0.0993652H59.9347V7.6398Z"></path>
<path d="M65.0636 7.74439C66.657 7.74439 67.6341 6.68355 67.6341 4.92544C67.6341 3.1773 66.652 2.11148 65.0636 2.11148C63.4703 2.11148 62.4882 3.1773 62.4882 4.92544C62.4882 6.68355 63.4652 7.74439 65.0636 7.74439ZM65.0636 6.79312C64.1267 6.79312 63.6005 6.1108 63.6005 4.92544C63.6005 3.75005 64.1267 3.06275 65.0636 3.06275C65.9956 3.06275 66.5268 3.75005 66.5268 4.92544C66.5268 6.10581 65.9956 6.79312 65.0636 6.79312Z"></path>
<path d="M70.8439 6.82798C70.2577 6.82798 69.8318 6.5441 69.8318 6.05601C69.8318 5.57788 70.1725 5.32388 70.9241 5.27408L72.2569 5.18941V5.64263C72.2569 6.31499 71.6557 6.82798 70.8439 6.82798ZM70.5683 7.72945C71.2849 7.72945 71.8811 7.42066 72.2068 6.87779H72.292V7.6398H73.3292V3.93433C73.3292 2.78882 72.5576 2.11148 71.1897 2.11148C69.952 2.11148 69.0702 2.70913 68.9599 3.64048H70.0021C70.1224 3.25698 70.5383 3.03784 71.1396 3.03784C71.8761 3.03784 72.2569 3.36157 72.2569 3.93433V4.40249L70.7788 4.48716C69.481 4.56685 68.7495 5.12964 68.7495 6.10581C68.7495 7.09693 69.5161 7.72945 70.5683 7.72945Z"></path>
<path d="M76.985 7.72945C77.7366 7.72945 78.3729 7.37583 78.6986 6.78316H78.7838V7.6398H79.816V0.0993652H78.7387V3.07769H78.6585C78.3629 2.48003 77.7316 2.12642 76.985 2.12642C75.6071 2.12642 74.7202 3.21216 74.7202 4.92544C74.7202 6.64371 75.597 7.72945 76.985 7.72945ZM77.2906 3.08765C78.1926 3.08765 78.7588 3.79986 78.7588 4.93042C78.7588 6.06597 78.1976 6.76822 77.2906 6.76822C76.3787 6.76822 75.8325 6.07593 75.8325 4.92544C75.8325 3.78491 76.3837 3.08765 77.2906 3.08765Z"></path>
<path d="M86.8019 7.74439C88.3952 7.74439 89.3723 6.68355 89.3723 4.92544C89.3723 3.1773 88.3902 2.11148 86.8019 2.11148C85.2085 2.11148 84.2264 3.1773 84.2264 4.92544C84.2264 6.68355 85.2035 7.74439 86.8019 7.74439ZM86.8019 6.79312C85.8649 6.79312 85.3388 6.1108 85.3388 4.92544C85.3388 3.75005 85.8649 3.06275 86.8019 3.06275C87.7338 3.06275 88.265 3.75005 88.265 4.92544C88.265 6.10581 87.7338 6.79312 86.8019 6.79312Z"></path>
<path d="M90.7984 7.6398H91.8757V4.46724C91.8757 3.62056 92.3817 3.09263 93.1784 3.09263C93.9751 3.09263 94.3559 3.52593 94.3559 4.39751V7.6398H95.4332V4.12857C95.4332 2.83862 94.7618 2.11148 93.5442 2.11148C92.7225 2.11148 92.1813 2.47505 91.9157 3.07769H91.8356V2.21607H90.7984V7.6398Z"></path>
<path d="M100.395 0.866358V2.24097H99.5279V3.14243H100.395V6.20542C100.395 7.25132 100.871 7.66968 102.068 7.66968C102.279 7.66968 102.479 7.64478 102.655 7.6149V6.72339C102.504 6.73833 102.409 6.7483 102.244 6.7483C101.708 6.7483 101.472 6.49927 101.472 5.9315V3.14243H102.655V2.24097H101.472V0.866358H100.395Z"></path>
<path d="M104.101 7.6398H105.178V4.47222C105.178 3.65044 105.669 3.09761 106.551 3.09761C107.312 3.09761 107.718 3.53589 107.718 4.40249V7.6398H108.796V4.13853C108.796 2.84859 108.079 2.11646 106.917 2.11646C106.095 2.11646 105.519 2.48003 105.253 3.08765H105.168V0.0993652H104.101V7.6398Z"></path>
<path d="M112.682 3.0229C113.479 3.0229 114 3.57573 114.025 4.4274H111.269C111.329 3.58072 111.885 3.0229 112.682 3.0229ZM114.02 6.17554C113.819 6.59888 113.373 6.83296 112.722 6.83296C111.86 6.83296 111.304 6.23033 111.269 5.27906V5.21929H115.122V4.84576C115.122 3.14243 114.205 2.11148 112.687 2.11148C111.149 2.11148 110.172 3.21216 110.172 4.94536C110.172 6.67857 111.129 7.74439 112.692 7.74439C113.94 7.74439 114.811 7.14673 115.057 6.17554H114.02Z"></path>
<path d="M18.5007 14.3613C18.5269 12.3441 19.6168 10.4354 21.3458 9.3788C20.255 7.83042 18.4281 6.8487 16.5273 6.78959C14.5 6.57807 12.5347 7.99538 11.5016 7.99538C10.4485 7.99538 8.85793 6.81059 7.14514 6.84561C4.91258 6.91731 2.83129 8.17897 1.7451 10.1191C-0.589762 14.1372 1.15184 20.0424 3.38844 23.2904C4.50746 24.8808 5.81528 26.6573 7.52653 26.5943C9.20109 26.5253 9.8265 25.5329 11.8478 25.5329C13.8504 25.5329 14.4372 26.5943 16.1832 26.5543C17.98 26.5253 19.1122 24.9568 20.1919 23.3513C20.9959 22.2181 21.6146 20.9656 22.0251 19.6403C19.9134 18.7525 18.5032 16.6402 18.5007 14.3613Z"></path>
<path d="M15.2029 4.65359C16.1826 3.48454 16.6653 1.98192 16.5484 0.464844C15.0516 0.621108 13.669 1.33218 12.676 2.45638C11.705 3.55477 11.1997 5.03095 11.2952 6.49004C12.7926 6.50537 14.2646 5.81357 15.2029 4.65359Z"></path>
</svg>