<svg width="142.45" height="32.65" viewBox="0 0 143 33" fill="none" xmlns="http://www.w3.org/2000/svg">
    <path d="M71.5934 18.101C68.7013 18.101 66.3441 20.2478 66.3441 23.2046C66.3441 26.1434 68.7013 28.3082 71.5934 28.3082C74.4867 28.3082 76.8439 26.1434 76.8439 23.2046C76.8427 20.2478 74.4855 18.101 71.5934 18.101ZM71.5934 26.2994C70.0084 26.2994 68.6423 25.0238 68.6423 23.2058C68.6423 21.3686 70.0096 20.1122 71.5934 20.1122C73.1784 20.1122 74.5445 21.3686 74.5445 23.2058C74.5445 25.0226 73.1784 26.2994 71.5934 26.2994ZM60.1406 18.101C57.2485 18.101 54.8913 20.2478 54.8913 23.2046C54.8913 26.1434 57.2485 28.3082 60.1406 28.3082C63.0339 28.3082 65.3911 26.1434 65.3911 23.2046C65.3911 20.2478 63.0339 18.101 60.1406 18.101ZM60.1406 26.2994C58.5556 26.2994 57.1895 25.0238 57.1895 23.2058C57.1895 21.3686 58.5568 20.1122 60.1406 20.1122C61.7256 20.1122 63.0917 21.3686 63.0917 23.2058C63.0929 25.0226 61.7256 26.2994 60.1406 26.2994ZM46.5188 19.6682V21.833H51.8283C51.6697 23.051 51.2541 23.9402 50.6196 24.5582C49.8474 25.3118 48.6386 26.1434 46.5188 26.1434C43.2504 26.1434 40.6952 23.5718 40.6952 20.3822C40.6952 17.1926 43.2504 14.621 46.5188 14.621C48.282 14.621 49.5695 15.2978 50.52 16.1678L52.0853 14.6402C50.7573 13.403 48.9952 12.4562 46.5188 12.4562C42.0417 12.4562 38.2778 16.013 38.2778 20.3822C38.2778 24.7514 42.0417 28.3082 46.5188 28.3082C48.935 28.3082 50.7585 27.5342 52.1837 26.0846C53.6494 24.6542 54.1056 22.643 54.1056 21.0194C54.1056 20.5178 54.0662 20.0534 53.9863 19.667H46.5188V19.6682ZM102.231 21.3494C101.796 20.2094 100.468 18.101 97.7537 18.101C95.0596 18.101 92.8205 20.1698 92.8205 23.2046C92.8205 26.0654 95.0399 28.3082 98.0107 28.3082C100.407 28.3082 101.794 26.8778 102.37 26.0462L100.587 24.8858C99.9929 25.7366 99.1801 26.297 98.0107 26.297C96.8426 26.297 96.0101 25.775 95.4752 24.7502L102.468 21.9278L102.231 21.3494ZM95.099 23.051C95.0399 21.0782 96.6643 20.0738 97.8337 20.0738C98.7448 20.0738 99.517 20.519 99.7752 21.1562L95.099 23.051ZM89.4144 27.9998H91.7113V12.9986H89.4144V27.9998ZM85.6493 19.2422H85.5706C85.0553 18.6422 84.0643 18.101 82.8174 18.101C80.202 18.101 77.8055 20.3438 77.8055 23.225C77.8055 26.0858 80.202 28.3094 82.8174 28.3094C84.0655 28.3094 85.0553 27.7682 85.5706 27.1502H85.6493V27.8846C85.6493 29.837 84.5795 30.881 82.8568 30.881C81.4501 30.881 80.5783 29.8958 80.2217 29.0642L78.2211 29.8766C78.7953 31.229 80.32 32.8922 82.8568 32.8922C85.5509 32.8922 87.8294 31.3454 87.8294 27.575V18.4118H85.6505V19.2422H85.6493ZM83.0154 26.2994C81.4304 26.2994 80.1036 25.0034 80.1036 23.225C80.1036 21.4262 81.4304 20.1122 83.0154 20.1122C84.5795 20.1122 85.8079 21.4262 85.8079 23.225C85.8079 25.0034 84.5795 26.2994 83.0154 26.2994ZM112.995 12.9986H107.497V27.9998H109.791V22.3166H112.994C115.537 22.3166 118.038 20.5202 118.038 17.6582C118.038 14.7962 115.538 12.9986 112.995 12.9986ZM113.054 20.2286H109.791V15.0866H113.054C114.769 15.0866 115.743 16.4726 115.743 17.6582C115.743 18.8198 114.769 20.2286 113.054 20.2286ZM127.234 18.0746C125.573 18.0746 123.853 18.7886 123.141 20.3714L125.177 21.2006C125.612 20.3714 126.424 20.1002 127.273 20.1002C128.46 20.1002 129.666 20.795 129.686 22.0298V22.1846C129.27 21.953 128.38 21.6062 127.293 21.6062C125.098 21.6062 122.863 22.7834 122.863 24.983C122.863 26.9906 124.663 28.283 126.68 28.283C128.222 28.283 129.072 27.6074 129.606 26.8154H129.685V27.9734H131.901V22.2218C131.902 19.5602 129.863 18.0746 127.234 18.0746ZM126.956 26.2958C126.206 26.2958 125.157 25.9286 125.157 25.0214C125.157 23.8634 126.463 23.4194 127.591 23.4194C128.598 23.4194 129.074 23.6318 129.686 23.921C129.508 25.3118 128.282 26.2958 126.956 26.2958ZM139.969 18.4022L137.339 24.9062H137.261L134.531 18.4022H132.059L136.153 27.4922L133.819 32.549H136.212L142.521 18.4022H139.969ZM119.304 27.9998H121.597V12.9986H119.304V27.9998Z"></path>
    <path d="M46.1161 4.29183C46.1161 5.29743 45.8111 6.09783 45.2 6.69543C44.5065 7.40583 43.6015 7.76103 42.4899 7.76103C41.4251 7.76103 40.5188 7.40102 39.7749 6.68103C39.0297 5.95982 38.6572 5.06703 38.6572 4.00143C38.6572 2.93462 39.0297 2.04183 39.7749 1.32183C40.5188 0.600625 41.4251 0.240626 42.4899 0.240626C43.0187 0.240626 43.524 0.341425 44.0036 0.541825C44.4844 0.743425 44.8693 1.01103 45.157 1.34583L44.509 1.97943C44.0208 1.40943 43.3482 1.12503 42.4887 1.12503C41.7116 1.12503 41.0402 1.39143 40.4733 1.92423C39.9065 2.45703 39.6237 3.14943 39.6237 4.00023C39.6237 4.85103 39.9065 5.54343 40.4733 6.07623C41.0402 6.60903 41.7116 6.87543 42.4887 6.87543C43.3125 6.87543 43.9999 6.60783 44.5495 6.07143C44.9061 5.72223 45.1127 5.23623 45.168 4.61343H42.4887V3.74823H46.0632C46.1001 3.93663 46.1161 4.11783 46.1161 4.29183Z"></path>
    <path d="M51.7848 1.28469H48.4255V3.56709H51.4553V4.43229H48.4255V6.71469H51.7848V7.60029H47.4774V0.400293H51.7848V1.28469Z"></path>
    <path d="M55.7822 7.60029H54.8341V1.28469H52.7733V0.400293H57.843V1.28469H55.7822V7.60029Z"></path>
    <path d="M61.511 7.60029V0.400293H62.459V7.60029H61.511Z"></path>
    <path d="M66.6633 7.60029H65.7153V1.28469H63.6544V0.400293H68.7242V1.28469H66.6633V7.60029Z"></path>
    <path d="M78.3212 6.67028C77.5957 7.39748 76.6944 7.76108 75.616 7.76108C74.5376 7.76108 73.6363 7.39748 72.912 6.67028C72.1865 5.94308 71.825 5.05268 71.825 4.00028C71.825 2.94788 72.1865 2.05748 72.912 1.33028C73.6363 0.603081 74.5376 0.238281 75.616 0.238281C76.6882 0.238281 77.5883 0.604281 78.3162 1.33508C79.0442 2.06588 79.4081 2.95388 79.4081 4.00028C79.4081 5.05268 79.0454 5.94308 78.3212 6.67028ZM73.6117 6.06668C74.1576 6.60668 74.8253 6.87548 75.616 6.87548C76.4066 6.87548 77.0755 6.60548 77.6203 6.06668C78.1662 5.52668 78.4404 4.83788 78.4404 4.00028C78.4404 3.16268 78.1662 2.47388 77.6203 1.93388C77.0755 1.39388 76.4066 1.12508 75.616 1.12508C74.8253 1.12508 74.1576 1.39508 73.6117 1.93388C73.067 2.47388 72.7927 3.16268 72.7927 4.00028C72.7927 4.83788 73.067 5.52668 73.6117 6.06668Z"></path>
    <path d="M80.7386 7.60029V0.400293H81.892L85.4776 6.00069H85.5182L85.4776 4.61349V0.400293H86.4257V7.60029H85.4358L81.6842 1.72749H81.6436L81.6842 3.11469V7.60029H80.7386Z"></path>
    <path d="M46.1161 4.29183C46.1161 5.29743 45.8111 6.09783 45.2 6.69543C44.5065 7.40583 43.6015 7.76103 42.4899 7.76103C41.4251 7.76103 40.5188 7.40102 39.7749 6.68103C39.0297 5.95982 38.6572 5.06703 38.6572 4.00143C38.6572 2.93462 39.0297 2.04183 39.7749 1.32183C40.5188 0.600625 41.4251 0.240626 42.4899 0.240626C43.0187 0.240626 43.524 0.341425 44.0036 0.541825C44.4844 0.743425 44.8693 1.01103 45.157 1.34583L44.509 1.97943C44.0208 1.40943 43.3482 1.12503 42.4887 1.12503C41.7116 1.12503 41.0402 1.39143 40.4733 1.92423C39.9065 2.45703 39.6237 3.14943 39.6237 4.00023C39.6237 4.85103 39.9065 5.54343 40.4733 6.07623C41.0402 6.60903 41.7116 6.87543 42.4887 6.87543C43.3125 6.87543 43.9999 6.60783 44.5495 6.07143C44.9061 5.72223 45.1127 5.23623 45.168 4.61343H42.4887V3.74823H46.0632C46.1001 3.93663 46.1161 4.11783 46.1161 4.29183Z"
          stroke="white" stroke-width="0.2" stroke-miterlimit="10"></path>
    <path d="M51.7848 1.28469H48.4255V3.56709H51.4553V4.43229H48.4255V6.71469H51.7848V7.60029H47.4774V0.400293H51.7848V1.28469Z"
          stroke="white" stroke-width="0.2" stroke-miterlimit="10"></path>
    <path d="M55.7822 7.60029H54.8341V1.28469H52.7733V0.400293H57.843V1.28469H55.7822V7.60029Z" stroke="white"
          stroke-width="0.2" stroke-miterlimit="10"></path>
    <path d="M61.511 7.60029V0.400293H62.459V7.60029H61.511Z" stroke="white" stroke-width="0.2"
          stroke-miterlimit="10"></path>
    <path d="M66.6633 7.60029H65.7153V1.28469H63.6544V0.400293H68.7242V1.28469H66.6633V7.60029Z" stroke="white"
          stroke-width="0.2" stroke-miterlimit="10"></path>
    <path d="M78.3212 6.67028C77.5957 7.39748 76.6944 7.76108 75.616 7.76108C74.5376 7.76108 73.6363 7.39748 72.912 6.67028C72.1865 5.94308 71.825 5.05268 71.825 4.00028C71.825 2.94788 72.1865 2.05748 72.912 1.33028C73.6363 0.603081 74.5376 0.238281 75.616 0.238281C76.6882 0.238281 77.5883 0.604281 78.3162 1.33508C79.0442 2.06588 79.4081 2.95388 79.4081 4.00028C79.4081 5.05268 79.0454 5.94308 78.3212 6.67028ZM73.6117 6.06668C74.1576 6.60668 74.8253 6.87548 75.616 6.87548C76.4066 6.87548 77.0755 6.60548 77.6203 6.06668C78.1662 5.52668 78.4404 4.83788 78.4404 4.00028C78.4404 3.16268 78.1662 2.47388 77.6203 1.93388C77.0755 1.39388 76.4066 1.12508 75.616 1.12508C74.8253 1.12508 74.1576 1.39508 73.6117 1.93388C73.067 2.47388 72.7927 3.16268 72.7927 4.00028C72.7927 4.83788 73.067 5.52668 73.6117 6.06668Z"
          stroke="white" stroke-width="0.2" stroke-miterlimit="10"></path>
    <path d="M80.7386 7.60029V0.400293H81.892L85.4776 6.00069H85.5182L85.4776 4.61349V0.400293H86.4257V7.60029H85.4358L81.6842 1.72749H81.6436L81.6842 3.11469V7.60029H80.7386Z"
          stroke="white" stroke-width="0.2" stroke-miterlimit="10"></path>
    <g filter="url(#filter49_ii)">
        <path d="M0.642074 1.04524C0.284251 1.41484 0.0727534 1.98844 0.0727534 2.73124V29.2704C0.0727534 30.0144 0.284251 30.5868 0.642074 30.9564L0.733065 31.0428L15.9669 16.176V16.0008V15.8256L0.733065 0.957642L0.642074 1.04524Z"
              fill="url(#paint51_linear)"></path>
        <path d="M21.044 21.1332L15.9669 16.176V16.0008V15.8256L21.0452 10.8696L21.1596 10.9332L27.1762 14.2692C28.8939 15.222 28.8939 16.7808 27.1762 17.7348L21.1596 21.0708L21.044 21.1332Z"
              fill="url(#paint52_linear)"></path>
        <g filter="url(#filter50_i)">
            <path d="M21.1597 21.0698L15.9657 16.001L0.642091 30.9566C1.20772 31.5422 2.14347 31.6142 3.19726 31.031L21.1597 21.0698Z"
                  fill="url(#paint53_linear)"></path>
        </g>
        <path d="M21.1597 10.932L3.19726 0.972016C2.14347 0.387616 1.20772 0.460816 0.642091 1.04642L15.967 16.002L21.1597 10.932Z"
              fill="url(#paint54_linear)"></path>
    </g>
    <defs>
        <filter id="filter49_ii" x="0.0727539" y="0.568726" width="28.3918" height="30.8651"
                filterUnits="userSpaceOnUse" color-interpolation-filters="sRGB">
            <feFlood flood-opacity="0" result="BackgroundImageFix"></feFlood>
            <feBlend mode="normal" in="SourceGraphic" in2="BackgroundImageFix" result="shape"></feBlend>
            <feColorMatrix in="SourceAlpha" type="matrix" values="0 0 0 0 0 0 0 0 0 0 0 0 0 0 0 0 0 0 127 0"
                           result="hardAlpha"></feColorMatrix>
            <feOffset dy="-0.15"></feOffset>
            <feComposite in2="hardAlpha" operator="arithmetic" k2="-1" k3="1"></feComposite>
            <feColorMatrix type="matrix" values="0 0 0 0 0 0 0 0 0 0 0 0 0 0 0 0 0 0 0.12 0"></feColorMatrix>
            <feBlend mode="normal" in2="shape" result="effect1_innerShadow"></feBlend>
            <feColorMatrix in="SourceAlpha" type="matrix" values="0 0 0 0 0 0 0 0 0 0 0 0 0 0 0 0 0 0 127 0"
                           result="hardAlpha"></feColorMatrix>
            <feOffset dy="0.15"></feOffset>
            <feComposite in2="hardAlpha" operator="arithmetic" k2="-1" k3="1"></feComposite>
            <feColorMatrix type="matrix" values="0 0 0 0 1 0 0 0 0 1 0 0 0 0 1 0 0 0 0.25 0"></feColorMatrix>
            <feBlend mode="normal" in2="effect1_innerShadow" result="effect2_innerShadow"></feBlend>
        </filter>
        <filter id="filter50_i" x="0.640625" y="16.001" width="20.5176" height="15.4328" filterUnits="userSpaceOnUse"
                color-interpolation-filters="sRGB">
            <feFlood flood-opacity="0" result="BackgroundImageFix"></feFlood>
            <feBlend mode="normal" in="SourceGraphic" in2="BackgroundImageFix" result="shape"></feBlend>
            <feColorMatrix in="SourceAlpha" type="matrix" values="0 0 0 0 0 0 0 0 0 0 0 0 0 0 0 0 0 0 127 0"
                           result="hardAlpha"></feColorMatrix>
            <feOffset dy="-0.15"></feOffset>
            <feComposite in2="hardAlpha" operator="arithmetic" k2="-1" k3="1"></feComposite>
            <feColorMatrix type="matrix" values="0 0 0 0 0 0 0 0 0 0 0 0 0 0 0 0 0 0 0.08 0"></feColorMatrix>
            <feBlend mode="normal" in2="shape" result="effect1_innerShadow"></feBlend>
        </filter>
        <linearGradient id="paint51_linear" x1="14.6161" y1="2.44983" x2="-5.51632" y2="23.0793"
                        gradientUnits="userSpaceOnUse">
            <stop stop-color="#00A0FF"></stop>
            <stop offset="0.0066" stop-color="#00A1FF"></stop>
            <stop offset="0.2601" stop-color="#00BEFF"></stop>
            <stop offset="0.5122" stop-color="#00D2FF"></stop>
            <stop offset="0.7604" stop-color="#00DFFF"></stop>
            <stop offset="1" stop-color="#00E3FF"></stop>
        </linearGradient>
        <linearGradient id="paint52_linear" x1="29.4122" y1="16.0003" x2="-0.339808" y2="16.0003"
                        gradientUnits="userSpaceOnUse">
            <stop stop-color="#FFE000"></stop>
            <stop offset="0.4087" stop-color="#FFBD00"></stop>
            <stop offset="0.7754" stop-color="#FFA500"></stop>
            <stop offset="1" stop-color="#FF9C00"></stop>
        </linearGradient>
        <linearGradient id="paint53_linear" x1="18.3376" y1="18.7537" x2="-8.9645" y2="46.7299"
                        gradientUnits="userSpaceOnUse">
            <stop stop-color="#FF3A44"></stop>
            <stop offset="1" stop-color="#C31162"></stop>
        </linearGradient>
        <linearGradient id="paint54_linear" x1="-3.21869" y1="-7.78859" x2="8.97245" y2="4.70356"
                        gradientUnits="userSpaceOnUse">
            <stop stop-color="#32A071"></stop>
            <stop offset="0.0685" stop-color="#2DA771"></stop>
            <stop offset="0.4762" stop-color="#15CF74"></stop>
            <stop offset="0.8009" stop-color="#06E775"></stop>
            <stop offset="1" stop-color="#00F076"></stop>
        </linearGradient>
    </defs>
</svg>