<svg width="143" height="33" viewBox="0 0 143 33" fill="none" xmlns="http://www.w3.org/2000/svg">
<path d="M71.5933 18.1011C68.7012 18.1011 66.344 20.2479 66.344 23.2047C66.344 26.1435 68.7012 28.3083 71.5933 28.3083C74.4866 28.3083 76.8438 26.1435 76.8438 23.2047C76.8426 20.2479 74.4854 18.1011 71.5933 18.1011ZM71.5933 26.2995C70.0083 26.2995 68.6422 25.0239 68.6422 23.2059C68.6422 21.3687 70.0095 20.1123 71.5933 20.1123C73.1783 20.1123 74.5444 21.3687 74.5444 23.2059C74.5444 25.0227 73.1783 26.2995 71.5933 26.2995ZM60.1405 18.1011C57.2484 18.1011 54.8912 20.2479 54.8912 23.2047C54.8912 26.1435 57.2484 28.3083 60.1405 28.3083C63.0338 28.3083 65.3911 26.1435 65.3911 23.2047C65.3911 20.2479 63.0338 18.1011 60.1405 18.1011ZM60.1405 26.2995C58.5555 26.2995 57.1894 25.0239 57.1894 23.2059C57.1894 21.3687 58.5568 20.1123 60.1405 20.1123C61.7255 20.1123 63.0916 21.3687 63.0916 23.2059C63.0929 25.0227 61.7255 26.2995 60.1405 26.2995ZM46.5187 19.6683V21.8331H51.8282C51.6696 23.0511 51.254 23.9403 50.6195 24.5583C49.8473 25.3119 48.6386 26.1435 46.5187 26.1435C43.2503 26.1435 40.6952 23.5719 40.6952 20.3823C40.6952 17.1927 43.2503 14.6211 46.5187 14.6211C48.282 14.6211 49.5694 15.2979 50.5199 16.1679L52.0852 14.6403C50.7572 13.4031 48.9952 12.4563 46.5187 12.4563C42.0416 12.4563 38.2777 16.0131 38.2777 20.3823C38.2777 24.7515 42.0416 28.3083 46.5187 28.3083C48.9349 28.3083 50.7585 27.5343 52.1836 26.0847C53.6493 24.6543 54.1055 22.6431 54.1055 21.0195C54.1055 20.5179 54.0662 20.0535 53.9862 19.6671H46.5187V19.6683ZM102.231 21.3495C101.795 20.2095 100.467 18.1011 97.7537 18.1011C95.0596 18.1011 92.8204 20.1699 92.8204 23.2047C92.8204 26.0655 95.0399 28.3083 98.0107 28.3083C100.407 28.3083 101.794 26.8779 102.37 26.0463L100.587 24.8859C99.9928 25.7367 99.18 26.2971 98.0107 26.2971C96.8425 26.2971 96.0101 25.7751 95.4752 24.7503L102.468 21.9279L102.231 21.3495ZM95.0989 23.0511C95.0399 21.0783 96.6642 20.0739 97.8336 20.0739C98.7448 20.0739 99.517 20.5191 99.7752 21.1563L95.0989 23.0511ZM89.4143 27.9999H91.7113V12.9987H89.4143V27.9999ZM85.6492 19.2423H85.5705C85.0553 18.6423 84.0642 18.1011 82.8174 18.1011C80.2019 18.1011 77.8054 20.3439 77.8054 23.2251C77.8054 26.0859 80.2019 28.3095 82.8174 28.3095C84.0654 28.3095 85.0553 27.7683 85.5705 27.1503H85.6492V27.8847C85.6492 29.8371 84.5794 30.8811 82.8567 30.8811C81.45 30.8811 80.5782 29.8959 80.2216 29.0643L78.221 29.8767C78.7952 31.2291 80.32 32.8923 82.8567 32.8923C85.5508 32.8923 87.8293 31.3455 87.8293 27.5751V18.4119H85.6504V19.2423H85.6492ZM83.0153 26.2995C81.4303 26.2995 80.1036 25.0035 80.1036 23.2251C80.1036 21.4263 81.4303 20.1123 83.0153 20.1123C84.5794 20.1123 85.8078 21.4263 85.8078 23.2251C85.8078 25.0035 84.5794 26.2995 83.0153 26.2995ZM112.995 12.9987H107.497V27.9999H109.791V22.3167H112.994C115.537 22.3167 118.038 20.5203 118.038 17.6583C118.038 14.7963 115.538 12.9987 112.995 12.9987ZM113.054 20.2287H109.791V15.0867H113.054C114.769 15.0867 115.743 16.4727 115.743 17.6583C115.743 18.8199 114.769 20.2287 113.054 20.2287ZM127.234 18.0747C125.573 18.0747 123.853 18.7887 123.141 20.3715L125.177 21.2007C125.612 20.3715 126.424 20.1003 127.273 20.1003C128.46 20.1003 129.666 20.7951 129.686 22.0299V22.1847C129.27 21.9531 128.38 21.6063 127.293 21.6063C125.098 21.6063 122.863 22.7835 122.863 24.9831C122.863 26.9907 124.663 28.2831 126.679 28.2831C128.221 28.2831 129.072 27.6075 129.606 26.8155H129.685V27.9735H131.9V22.2219C131.902 19.5603 129.863 18.0747 127.234 18.0747ZM126.956 26.2959C126.206 26.2959 125.157 25.9287 125.157 25.0215C125.157 23.8635 126.463 23.4195 127.591 23.4195C128.598 23.4195 129.074 23.6319 129.686 23.9211C129.508 25.3119 128.282 26.2959 126.956 26.2959ZM139.969 18.4023L137.339 24.9063H137.26L134.531 18.4023H132.059L136.153 27.4923L133.819 32.5491H136.212L142.521 18.4023H139.969ZM119.304 27.9999H121.597V12.9987H119.304V27.9999Z" fill="#0C0D10"/>
<path d="M46.116 4.29183C46.116 5.29743 45.8111 6.09783 45.2 6.69543C44.5064 7.40583 43.6014 7.76103 42.4899 7.76103C41.425 7.76103 40.5188 7.40102 39.7748 6.68103C39.0297 5.95982 38.6571 5.06703 38.6571 4.00143C38.6571 2.93462 39.0297 2.04183 39.7748 1.32183C40.5188 0.600625 41.425 0.240626 42.4899 0.240626C43.0186 0.240626 43.524 0.341425 44.0035 0.541825C44.4843 0.743425 44.8692 1.01103 45.1569 1.34583L44.5089 1.97943C44.0207 1.40943 43.3481 1.12503 42.4886 1.12503C41.7115 1.12503 41.0401 1.39143 40.4733 1.92423C39.9064 2.45703 39.6236 3.14943 39.6236 4.00023C39.6236 4.85103 39.9064 5.54343 40.4733 6.07623C41.0401 6.60903 41.7115 6.87543 42.4886 6.87543C43.3125 6.87543 43.9998 6.60783 44.5495 6.07143C44.9061 5.72223 45.1127 5.23623 45.168 4.61343H42.4886V3.74823H46.0632C46.1 3.93663 46.116 4.11783 46.116 4.29183Z" fill="#0C0D10"/>
<path d="M51.7847 1.28469H48.4254V3.56709H51.4552V4.43229H48.4254V6.71469H51.7847V7.60029H47.4774V0.400293H51.7847V1.28469Z" fill="#0C0D10"/>
<path d="M55.7821 7.60029H54.8341V1.28469H52.7732V0.400293H57.843V1.28469H55.7821V7.60029Z" fill="#0C0D10"/>
<path d="M61.5109 7.60029V0.400293H62.459V7.60029H61.5109Z" fill="#0C0D10"/>
<path d="M66.6633 7.60029H65.7152V1.28469H63.6544V0.400293H68.7241V1.28469H66.6633V7.60029Z" fill="#0C0D10"/>
<path d="M78.3211 6.67028C77.5956 7.39748 76.6943 7.76108 75.6159 7.76108C74.5375 7.76108 73.6362 7.39748 72.912 6.67028C72.1865 5.94308 71.825 5.05268 71.825 4.00028C71.825 2.94788 72.1865 2.05748 72.912 1.33028C73.6362 0.603081 74.5375 0.238281 75.6159 0.238281C76.6881 0.238281 77.5882 0.604281 78.3162 1.33508C79.0441 2.06588 79.4081 2.95388 79.4081 4.00028C79.4081 5.05268 79.0454 5.94308 78.3211 6.67028ZM73.6116 6.06668C74.1576 6.60668 74.8253 6.87548 75.6159 6.87548C76.4066 6.87548 77.0755 6.60548 77.6202 6.06668C78.1662 5.52668 78.4404 4.83788 78.4404 4.00028C78.4404 3.16268 78.1662 2.47388 77.6202 1.93388C77.0755 1.39388 76.4066 1.12508 75.6159 1.12508C74.8253 1.12508 74.1576 1.39508 73.6116 1.93388C73.0669 2.47388 72.7927 3.16268 72.7927 4.00028C72.7927 4.83788 73.0669 5.52668 73.6116 6.06668Z" fill="#0C0D10"/>
<path d="M80.7386 7.60029V0.400293H81.892L85.4776 6.00069H85.5181L85.4776 4.61349V0.400293H86.4256V7.60029H85.4358L81.6842 1.72749H81.6436L81.6842 3.11469V7.60029H80.7386Z" fill="#0C0D10"/>
<path d="M46.116 4.29183C46.116 5.29743 45.8111 6.09783 45.2 6.69543C44.5064 7.40583 43.6014 7.76103 42.4899 7.76103C41.425 7.76103 40.5188 7.40102 39.7748 6.68103C39.0297 5.95982 38.6571 5.06703 38.6571 4.00143C38.6571 2.93462 39.0297 2.04183 39.7748 1.32183C40.5188 0.600625 41.425 0.240626 42.4899 0.240626C43.0186 0.240626 43.524 0.341425 44.0035 0.541825C44.4843 0.743425 44.8692 1.01103 45.1569 1.34583L44.5089 1.97943C44.0207 1.40943 43.3481 1.12503 42.4886 1.12503C41.7115 1.12503 41.0401 1.39143 40.4733 1.92423C39.9064 2.45703 39.6236 3.14943 39.6236 4.00023C39.6236 4.85103 39.9064 5.54343 40.4733 6.07623C41.0401 6.60903 41.7115 6.87543 42.4886 6.87543C43.3125 6.87543 43.9998 6.60783 44.5495 6.07143C44.9061 5.72223 45.1127 5.23623 45.168 4.61343H42.4886V3.74823H46.0632C46.1 3.93663 46.116 4.11783 46.116 4.29183Z" stroke="white" stroke-width="0.2" stroke-miterlimit="10"/>
<path d="M51.7847 1.28469H48.4254V3.56709H51.4552V4.43229H48.4254V6.71469H51.7847V7.60029H47.4774V0.400293H51.7847V1.28469Z" stroke="white" stroke-width="0.2" stroke-miterlimit="10"/>
<path d="M55.7821 7.60029H54.8341V1.28469H52.7732V0.400293H57.843V1.28469H55.7821V7.60029Z" stroke="white" stroke-width="0.2" stroke-miterlimit="10"/>
<path d="M61.5109 7.60029V0.400293H62.459V7.60029H61.5109Z" stroke="white" stroke-width="0.2" stroke-miterlimit="10"/>
<path d="M66.6633 7.60029H65.7152V1.28469H63.6544V0.400293H68.7241V1.28469H66.6633V7.60029Z" stroke="white" stroke-width="0.2" stroke-miterlimit="10"/>
<path d="M78.3211 6.67028C77.5956 7.39748 76.6943 7.76108 75.6159 7.76108C74.5375 7.76108 73.6362 7.39748 72.912 6.67028C72.1865 5.94308 71.825 5.05268 71.825 4.00028C71.825 2.94788 72.1865 2.05748 72.912 1.33028C73.6362 0.603081 74.5375 0.238281 75.6159 0.238281C76.6881 0.238281 77.5882 0.604281 78.3162 1.33508C79.0441 2.06588 79.4081 2.95388 79.4081 4.00028C79.4081 5.05268 79.0454 5.94308 78.3211 6.67028ZM73.6116 6.06668C74.1576 6.60668 74.8253 6.87548 75.6159 6.87548C76.4066 6.87548 77.0755 6.60548 77.6202 6.06668C78.1662 5.52668 78.4404 4.83788 78.4404 4.00028C78.4404 3.16268 78.1662 2.47388 77.6202 1.93388C77.0755 1.39388 76.4066 1.12508 75.6159 1.12508C74.8253 1.12508 74.1576 1.39508 73.6116 1.93388C73.0669 2.47388 72.7927 3.16268 72.7927 4.00028C72.7927 4.83788 73.0669 5.52668 73.6116 6.06668Z" stroke="white" stroke-width="0.2" stroke-miterlimit="10"/>
<path d="M80.7386 7.60029V0.400293H81.892L85.4776 6.00069H85.5181L85.4776 4.61349V0.400293H86.4256V7.60029H85.4358L81.6842 1.72749H81.6436L81.6842 3.11469V7.60029H80.7386Z" stroke="white" stroke-width="0.2" stroke-miterlimit="10"/>
<g filter="url(#filter0_ii)">
<path d="M0.642074 1.04536C0.284251 1.41496 0.0727534 1.98856 0.0727534 2.73136V29.2706C0.0727534 30.0146 0.284251 30.587 0.642074 30.9566L0.733065 31.043L15.9669 16.1762V16.001V15.8258L0.733065 0.957764L0.642074 1.04536Z" fill="url(#paint0_linear)"/>
<path d="M21.0439 21.1332L15.9668 16.176V16.0008V15.8256L21.0452 10.8696L21.1595 10.9332L27.1761 14.2692C28.8939 15.222 28.8939 16.7808 27.1761 17.7348L21.1595 21.0708L21.0439 21.1332Z" fill="url(#paint1_linear)"/>
<g filter="url(#filter1_i)">
<path d="M21.1597 21.0698L15.9657 16.001L0.642091 30.9566C1.20772 31.5422 2.14347 31.6142 3.19726 31.031L21.1597 21.0698Z" fill="url(#paint2_linear)"/>
</g>
<path d="M21.1597 10.9321L3.19726 0.972138C2.14347 0.387738 1.20772 0.460938 0.642091 1.04654L15.967 16.0021L21.1597 10.9321Z" fill="url(#paint3_linear)"/>
</g>
<defs>
<filter id="filter0_ii" x="0.0727539" y="0.568848" width="28.3917" height="30.8649" filterUnits="userSpaceOnUse" color-interpolation-filters="sRGB">
<feFlood flood-opacity="0" result="BackgroundImageFix"/>
<feBlend mode="normal" in="SourceGraphic" in2="BackgroundImageFix" result="shape"/>
<feColorMatrix in="SourceAlpha" type="matrix" values="0 0 0 0 0 0 0 0 0 0 0 0 0 0 0 0 0 0 127 0" result="hardAlpha"/>
<feOffset dy="-0.15"/>
<feComposite in2="hardAlpha" operator="arithmetic" k2="-1" k3="1"/>
<feColorMatrix type="matrix" values="0 0 0 0 0 0 0 0 0 0 0 0 0 0 0 0 0 0 0.12 0"/>
<feBlend mode="normal" in2="shape" result="effect1_innerShadow"/>
<feColorMatrix in="SourceAlpha" type="matrix" values="0 0 0 0 0 0 0 0 0 0 0 0 0 0 0 0 0 0 127 0" result="hardAlpha"/>
<feOffset dy="0.15"/>
<feComposite in2="hardAlpha" operator="arithmetic" k2="-1" k3="1"/>
<feColorMatrix type="matrix" values="0 0 0 0 1 0 0 0 0 1 0 0 0 0 1 0 0 0 0.25 0"/>
<feBlend mode="normal" in2="effect1_innerShadow" result="effect2_innerShadow"/>
</filter>
<filter id="filter1_i" x="0.64209" y="16.001" width="20.5176" height="15.4328" filterUnits="userSpaceOnUse" color-interpolation-filters="sRGB">
<feFlood flood-opacity="0" result="BackgroundImageFix"/>
<feBlend mode="normal" in="SourceGraphic" in2="BackgroundImageFix" result="shape"/>
<feColorMatrix in="SourceAlpha" type="matrix" values="0 0 0 0 0 0 0 0 0 0 0 0 0 0 0 0 0 0 127 0" result="hardAlpha"/>
<feOffset dy="-0.15"/>
<feComposite in2="hardAlpha" operator="arithmetic" k2="-1" k3="1"/>
<feColorMatrix type="matrix" values="0 0 0 0 0 0 0 0 0 0 0 0 0 0 0 0 0 0 0.08 0"/>
<feBlend mode="normal" in2="shape" result="effect1_innerShadow"/>
</filter>
<linearGradient id="paint0_linear" x1="14.6166" y1="2.45056" x2="-5.51583" y2="23.0801" gradientUnits="userSpaceOnUse">
<stop stop-color="#00A0FF"/>
<stop offset="0.0066" stop-color="#00A1FF"/>
<stop offset="0.2601" stop-color="#00BEFF"/>
<stop offset="0.5122" stop-color="#00D2FF"/>
<stop offset="0.7604" stop-color="#00DFFF"/>
<stop offset="1" stop-color="#00E3FF"/>
</linearGradient>
<linearGradient id="paint1_linear" x1="29.4122" y1="16.0008" x2="-0.339808" y2="16.0008" gradientUnits="userSpaceOnUse">
<stop stop-color="#FFE000"/>
<stop offset="0.4087" stop-color="#FFBD00"/>
<stop offset="0.7754" stop-color="#FFA500"/>
<stop offset="1" stop-color="#FF9C00"/>
</linearGradient>
<linearGradient id="paint2_linear" x1="18.339" y1="18.7537" x2="-8.96304" y2="46.7299" gradientUnits="userSpaceOnUse">
<stop stop-color="#FF3A44"/>
<stop offset="1" stop-color="#C31162"/>
</linearGradient>
<linearGradient id="paint3_linear" x1="-3.21723" y1="-7.7881" x2="8.97391" y2="4.70404" gradientUnits="userSpaceOnUse">
<stop stop-color="#32A071"/>
<stop offset="0.0685" stop-color="#2DA771"/>
<stop offset="0.4762" stop-color="#15CF74"/>
<stop offset="0.8009" stop-color="#06E775"/>
<stop offset="1" stop-color="#00F076"/>
</linearGradient>
</defs>
</svg>
