<?xml version="1.0" encoding="UTF-8"?><svg width="132" height="22" viewBox="0 0 132 22" fill="none" xmlns="http://www.w3.org/2000/svg">
<path d="M9.36112 4.23008C9.08245 3.87808 8.70112 3.62141 8.21712 3.46008C7.74778 3.28408 7.30045 3.19608 6.87512 3.19608C6.62578 3.19608 6.36912 3.22541 6.10512 3.28408C5.84112 3.34274 5.59178 3.43808 5.35712 3.57008C5.12245 3.68741 4.93178 3.84874 4.78512 4.05408C4.63845 4.25941 4.56512 4.50874 4.56512 4.80208C4.56512 5.27141 4.74112 5.63074 5.09312 5.88008C5.44512 6.12941 5.88512 6.34208 6.41312 6.51808C6.95578 6.69408 7.53512 6.87008 8.15112 7.04608C8.76712 7.22208 9.33912 7.47141 9.86712 7.79408C10.4098 8.11674 10.8571 8.54941 11.2091 9.09208C11.5611 9.63474 11.7371 10.3607 11.7371 11.2701C11.7371 12.1354 11.5758 12.8907 11.2531 13.5361C10.9305 14.1814 10.4905 14.7167 9.93312 15.1421C9.39045 15.5674 8.75245 15.8827 8.01912 16.0881C7.30045 16.2934 6.53778 16.3961 5.73112 16.3961C4.71912 16.3961 3.78045 16.2421 2.91512 15.9341C2.04978 15.6261 1.24312 15.1274 0.495117 14.4381L2.93712 11.7541C3.28912 12.2234 3.72912 12.5901 4.25712 12.8541C4.79978 13.1034 5.35712 13.2281 5.92912 13.2281C6.20778 13.2281 6.48645 13.1987 6.76512 13.1401C7.05845 13.0667 7.31512 12.9641 7.53512 12.8321C7.76978 12.7001 7.95312 12.5314 8.08512 12.3261C8.23178 12.1207 8.30512 11.8787 8.30512 11.6001C8.30512 11.1307 8.12178 10.7641 7.75512 10.5001C7.40312 10.2214 6.95578 9.98674 6.41312 9.79608C5.87045 9.60541 5.28378 9.41474 4.65312 9.22408C4.02245 9.03341 3.43578 8.77674 2.89312 8.45408C2.35045 8.13141 1.89578 7.70608 1.52912 7.17808C1.17712 6.65008 1.00112 5.95341 1.00112 5.08808C1.00112 4.25208 1.16245 3.51874 1.48512 2.88808C1.82245 2.25741 2.26245 1.72941 2.80512 1.30408C3.36245 0.878742 4.00045 0.563409 4.71912 0.358076C5.43778 0.138076 6.17845 0.0280762 6.94112 0.0280762C7.82112 0.0280762 8.67178 0.152743 9.49312 0.402075C10.3145 0.651409 11.0551 1.06941 11.7151 1.65608L9.36112 4.23008Z" fill="#147DFA"/>
<path d="M23.9519 16.0001H20.7839V14.5481H20.7399C20.6226 14.7534 20.4686 14.9587 20.2779 15.1641C20.1019 15.3694 19.8819 15.5527 19.6179 15.7141C19.3539 15.8754 19.0533 16.0074 18.7159 16.1101C18.3786 16.2127 18.0119 16.2641 17.6159 16.2641C16.7799 16.2641 16.0979 16.1394 15.5699 15.8901C15.0566 15.6261 14.6533 15.2667 14.3599 14.8121C14.0813 14.3574 13.8906 13.8221 13.7879 13.2061C13.6999 12.5901 13.6559 11.9227 13.6559 11.2041V5.30808H16.9559V10.5441C16.9559 10.8521 16.9633 11.1747 16.9779 11.5121C17.0073 11.8347 17.0733 12.1354 17.1759 12.4141C17.2933 12.6927 17.4619 12.9201 17.6819 13.0961C17.9166 13.2721 18.2466 13.3601 18.6719 13.3601C19.0973 13.3601 19.4419 13.2867 19.7059 13.1401C19.9699 12.9787 20.1679 12.7734 20.2999 12.5241C20.4466 12.2601 20.5419 11.9667 20.5859 11.6441C20.6299 11.3214 20.6519 10.9841 20.6519 10.6321V5.30808H23.9519V16.0001Z" fill="#147DFA"/>
<path d="M26.0687 5.30808H29.3687V7.02408H29.4127C29.7647 6.36408 30.1827 5.87274 30.6667 5.55008C31.1507 5.21274 31.7594 5.04408 32.4927 5.04408C32.6834 5.04408 32.8741 5.05141 33.0647 5.06608C33.2554 5.08074 33.4314 5.11008 33.5927 5.15408V8.16808C33.3581 8.09474 33.1234 8.04341 32.8887 8.01408C32.6687 7.97008 32.4341 7.94808 32.1847 7.94808C31.5541 7.94808 31.0554 8.03608 30.6887 8.21208C30.3221 8.38808 30.0361 8.63741 29.8307 8.96008C29.6401 9.26807 29.5154 9.64208 29.4567 10.0821C29.3981 10.5221 29.3687 11.0061 29.3687 11.5341V16.0001H26.0687V5.30808Z" fill="#147DFA"/>
<path d="M35.1157 5.30808H38.1517V6.71608H38.1957C38.3277 6.52541 38.4964 6.33474 38.7017 6.14408C38.9217 5.93874 39.1711 5.75541 39.4497 5.59408C39.7431 5.43274 40.0584 5.30074 40.3957 5.19808C40.7331 5.09541 41.0924 5.04408 41.4737 5.04408C42.2657 5.04408 42.9844 5.18341 43.6297 5.46208C44.2751 5.72608 44.8251 6.10741 45.2797 6.60608C45.7491 7.09008 46.1084 7.66941 46.3577 8.34408C46.6071 9.01874 46.7317 9.75941 46.7317 10.5661C46.7317 11.3141 46.6144 12.0327 46.3797 12.7221C46.1597 13.3967 45.8371 13.9981 45.4117 14.5261C45.0011 15.0541 44.4951 15.4794 43.8937 15.8021C43.2924 16.1101 42.6104 16.2641 41.8477 16.2641C41.1584 16.2641 40.5131 16.1614 39.9117 15.9561C39.3251 15.7361 38.8411 15.3694 38.4597 14.8561H38.4157V21.0161H35.1157V5.30808ZM38.1517 10.6541C38.1517 11.4607 38.3791 12.1134 38.8337 12.6121C39.3031 13.1107 39.9557 13.3601 40.7917 13.3601C41.6277 13.3601 42.2731 13.1107 42.7277 12.6121C43.1971 12.1134 43.4317 11.4607 43.4317 10.6541C43.4317 9.84741 43.1971 9.19474 42.7277 8.69608C42.2731 8.19741 41.6277 7.94808 40.7917 7.94808C39.9557 7.94808 39.3031 8.19741 38.8337 8.69608C38.3791 9.19474 38.1517 9.84741 38.1517 10.6541Z" fill="#147DFA"/>
<path d="M48.4451 5.30808H51.7451V7.02408H51.7892C52.1412 6.36408 52.5591 5.87274 53.0431 5.55008C53.5271 5.21274 54.1358 5.04408 54.8691 5.04408C55.0598 5.04408 55.2505 5.05141 55.4411 5.06608C55.6318 5.08074 55.8078 5.11008 55.9691 5.15408V8.16808C55.7345 8.09474 55.4998 8.04341 55.2651 8.01408C55.0451 7.97008 54.8105 7.94808 54.5611 7.94808C53.9305 7.94808 53.4318 8.03608 53.0651 8.21208C52.6985 8.38808 52.4125 8.63741 52.2071 8.96008C52.0165 9.26807 51.8918 9.64208 51.8331 10.0821C51.7745 10.5221 51.7451 11.0061 51.7451 11.5341V16.0001H48.4451V5.30808Z" fill="#147DFA"/>
<path d="M57.2281 5.30808H60.5281V16.0001H57.2281V5.30808ZM56.9641 1.94207C56.9641 1.41408 57.1475 0.966742 57.5141 0.600075C57.8955 0.218742 58.3501 0.0280762 58.8781 0.0280762C59.4061 0.0280762 59.8535 0.218742 60.2201 0.600075C60.6015 0.966742 60.7921 1.41408 60.7921 1.94207C60.7921 2.47007 60.6015 2.92474 60.2201 3.30608C59.8535 3.67274 59.4061 3.85608 58.8781 3.85608C58.3501 3.85608 57.8955 3.67274 57.5141 3.30608C57.1475 2.92474 56.9641 2.47007 56.9641 1.94207Z" fill="#147DFA"/>
<path d="M68.729 8.45408C68.245 7.85274 67.607 7.55208 66.815 7.55208C66.5363 7.55208 66.265 7.61808 66.001 7.75008C65.737 7.88208 65.605 8.10941 65.605 8.43208C65.605 8.69608 65.737 8.89408 66.001 9.02608C66.2796 9.14341 66.6243 9.25341 67.035 9.35608C67.4603 9.44408 67.9076 9.54674 68.377 9.66408C68.861 9.76674 69.3083 9.93541 69.719 10.1701C70.1443 10.4047 70.489 10.7274 70.753 11.1381C71.0316 11.5341 71.171 12.0694 71.171 12.7441C71.171 13.4334 71.017 14.0054 70.709 14.4601C70.4156 14.9001 70.0343 15.2594 69.565 15.5381C69.0956 15.8021 68.5676 15.9854 67.981 16.0881C67.3943 16.2054 66.815 16.2641 66.243 16.2641C65.495 16.2641 64.7396 16.1614 63.977 15.9561C63.2143 15.7361 62.569 15.3547 62.041 14.8121L64.043 12.5901C64.351 12.9714 64.6883 13.2647 65.055 13.4701C65.4363 13.6607 65.8763 13.7561 66.375 13.7561C66.7563 13.7561 67.101 13.7047 67.409 13.6021C67.717 13.4847 67.871 13.2794 67.871 12.9861C67.871 12.7074 67.7316 12.5021 67.453 12.3701C67.189 12.2234 66.8443 12.1061 66.419 12.0181C66.0083 11.9154 65.561 11.8127 65.077 11.7101C64.6077 11.5927 64.1603 11.4241 63.735 11.2041C63.3243 10.9841 62.9796 10.6761 62.701 10.2801C62.437 9.86941 62.305 9.32674 62.305 8.65208C62.305 8.02141 62.4296 7.47874 62.679 7.02408C62.943 6.56941 63.2803 6.19541 63.691 5.90208C64.1163 5.60874 64.6003 5.39608 65.143 5.26408C65.6856 5.11741 66.2356 5.04408 66.793 5.04408C67.497 5.04408 68.2083 5.14674 68.927 5.35208C69.6456 5.55741 70.2543 5.92408 70.753 6.45208L68.729 8.45408Z" fill="#147DFA"/>
<path d="M82.7626 14.1521C82.2346 14.8267 81.5672 15.3474 80.7606 15.7141C79.9539 16.0807 79.1179 16.2641 78.2526 16.2641C77.4312 16.2641 76.6539 16.1321 75.9206 15.8681C75.2019 15.6041 74.5712 15.2301 74.0286 14.7461C73.5006 14.2474 73.0826 13.6534 72.7746 12.9641C72.4666 12.2747 72.3126 11.5047 72.3126 10.6541C72.3126 9.80341 72.4666 9.03341 72.7746 8.34408C73.0826 7.65474 73.5006 7.06808 74.0286 6.58408C74.5712 6.08541 75.2019 5.70408 75.9206 5.44008C76.6539 5.17608 77.4312 5.04408 78.2526 5.04408C79.0152 5.04408 79.7046 5.17608 80.3206 5.44008C80.9512 5.70408 81.4792 6.08541 81.9046 6.58408C82.3446 7.06808 82.6819 7.65474 82.9166 8.34408C83.1512 9.03341 83.2686 9.80341 83.2686 10.6541V11.6881H75.6126C75.7446 12.3187 76.0306 12.8247 76.4706 13.2061C76.9106 13.5727 77.4532 13.7561 78.0986 13.7561C78.6412 13.7561 79.0959 13.6387 79.4626 13.4041C79.8439 13.1547 80.1739 12.8394 80.4526 12.4581L82.7626 14.1521ZM79.9686 9.44408C79.9832 8.88674 79.7999 8.41008 79.4186 8.01408C79.0372 7.61808 78.5459 7.42008 77.9446 7.42008C77.5779 7.42008 77.2552 7.47874 76.9766 7.59608C76.6979 7.71341 76.4559 7.86741 76.2506 8.05808C76.0599 8.23408 75.9059 8.44674 75.7886 8.69608C75.6859 8.93074 75.6272 9.18008 75.6126 9.44408H79.9686Z" fill="#147DFA"/>
<path d="M85.1214 14.1081C85.1214 13.8294 85.1727 13.5654 85.2754 13.3161C85.3781 13.0667 85.5174 12.8541 85.6934 12.6781C85.884 12.4874 86.104 12.3407 86.3534 12.2381C86.6027 12.1354 86.8667 12.0841 87.1454 12.0841C87.424 12.0841 87.688 12.1354 87.9374 12.2381C88.1867 12.3407 88.3994 12.4874 88.5754 12.6781C88.766 12.8541 88.9127 13.0667 89.0154 13.3161C89.118 13.5654 89.1694 13.8294 89.1694 14.1081C89.1694 14.3867 89.118 14.6507 89.0154 14.9001C88.9127 15.1494 88.766 15.3694 88.5754 15.5601C88.3994 15.7361 88.1867 15.8754 87.9374 15.9781C87.688 16.0807 87.424 16.1321 87.1454 16.1321C86.8667 16.1321 86.6027 16.0807 86.3534 15.9781C86.104 15.8754 85.884 15.7361 85.6934 15.5601C85.5174 15.3694 85.3781 15.1494 85.2754 14.9001C85.1727 14.6507 85.1214 14.3867 85.1214 14.1081Z" fill="#147DFA"/>
<path d="M98.5831 8.76208C98.4218 8.52741 98.1945 8.33674 97.9011 8.19008C97.6078 8.02874 97.2925 7.94808 96.9551 7.94808C96.1191 7.94808 95.4665 8.19741 94.9971 8.69608C94.5425 9.19474 94.3151 9.84741 94.3151 10.6541C94.3151 11.4607 94.5425 12.1134 94.9971 12.6121C95.4665 13.1107 96.1191 13.3601 96.9551 13.3601C97.3218 13.3601 97.6371 13.2794 97.9011 13.1181C98.1651 12.9567 98.3925 12.7661 98.5831 12.5461L100.761 14.8341C100.248 15.3621 99.6392 15.7361 98.9352 15.9561C98.2458 16.1614 97.5858 16.2641 96.9551 16.2641C96.1338 16.2641 95.3565 16.1321 94.6231 15.8681C93.9045 15.6041 93.2738 15.2301 92.7311 14.7461C92.2031 14.2474 91.7851 13.6534 91.4771 12.9641C91.1691 12.2747 91.0151 11.5047 91.0151 10.6541C91.0151 9.80341 91.1691 9.03341 91.4771 8.34408C91.7851 7.65474 92.2031 7.06808 92.7311 6.58408C93.2738 6.08541 93.9045 5.70408 94.6231 5.44008C95.3565 5.17608 96.1338 5.04408 96.9551 5.04408C97.5858 5.04408 98.2458 5.15408 98.9352 5.37408C99.6392 5.57941 100.248 5.94608 100.761 6.47408L98.5831 8.76208Z" fill="#147DFA"/>
<path d="M101.342 10.6541C101.342 9.80341 101.496 9.03341 101.804 8.34408C102.112 7.65474 102.53 7.06808 103.058 6.58408C103.601 6.08541 104.232 5.70408 104.95 5.44008C105.684 5.17608 106.461 5.04408 107.282 5.04408C108.104 5.04408 108.874 5.17608 109.592 5.44008C110.326 5.70408 110.956 6.08541 111.484 6.58408C112.027 7.06808 112.452 7.65474 112.76 8.34408C113.068 9.03341 113.222 9.80341 113.222 10.6541C113.222 11.5047 113.068 12.2747 112.76 12.9641C112.452 13.6534 112.027 14.2474 111.484 14.7461C110.956 15.2301 110.326 15.6041 109.592 15.8681C108.874 16.1321 108.104 16.2641 107.282 16.2641C106.461 16.2641 105.684 16.1321 104.95 15.8681C104.232 15.6041 103.601 15.2301 103.058 14.7461C102.53 14.2474 102.112 13.6534 101.804 12.9641C101.496 12.2747 101.342 11.5047 101.342 10.6541ZM104.642 10.6541C104.642 11.4607 104.87 12.1134 105.324 12.6121C105.794 13.1107 106.446 13.3601 107.282 13.3601C108.118 13.3601 108.764 13.1107 109.218 12.6121C109.688 12.1134 109.922 11.4607 109.922 10.6541C109.922 9.84741 109.688 9.19474 109.218 8.69608C108.764 8.19741 108.118 7.94808 107.282 7.94808C106.446 7.94808 105.794 8.19741 105.324 8.69608C104.87 9.19474 104.642 9.84741 104.642 10.6541Z" fill="#147DFA"/>
<path d="M114.946 5.30808H118.114V6.76008H118.158C118.261 6.55474 118.408 6.34941 118.598 6.14408C118.789 5.93874 119.016 5.75541 119.28 5.59408C119.544 5.43274 119.845 5.30074 120.182 5.19808C120.52 5.09541 120.886 5.04408 121.282 5.04408C122.03 5.04408 122.69 5.19808 123.262 5.50608C123.849 5.81408 124.289 6.29808 124.582 6.95808C124.964 6.26874 125.426 5.77741 125.968 5.48408C126.511 5.19074 127.178 5.04408 127.97 5.04408C128.689 5.04408 129.29 5.16874 129.774 5.41808C130.273 5.65274 130.661 5.98274 130.94 6.40808C131.233 6.81874 131.439 7.31008 131.556 7.88208C131.688 8.43941 131.754 9.04074 131.754 9.68608V16.0001H128.454V9.77408C128.454 9.27541 128.344 8.85008 128.124 8.49808C127.919 8.13141 127.545 7.94808 127.002 7.94808C126.621 7.94808 126.298 8.01408 126.034 8.14608C125.785 8.26341 125.579 8.43208 125.418 8.65208C125.271 8.87208 125.161 9.12874 125.088 9.42208C125.03 9.71541 125 10.0234 125 10.3461V16.0001H121.7V10.3461C121.7 10.1554 121.693 9.92074 121.678 9.64208C121.664 9.36341 121.612 9.09941 121.524 8.85008C121.436 8.60074 121.289 8.38808 121.084 8.21208C120.894 8.03608 120.607 7.94808 120.226 7.94808C119.801 7.94808 119.456 8.02874 119.192 8.19008C118.928 8.33674 118.723 8.54208 118.576 8.80608C118.444 9.05541 118.356 9.34141 118.312 9.66408C118.268 9.98674 118.246 10.3241 118.246 10.6761V16.0001H114.946V5.30808Z" fill="#147DFA"/>
</svg>
