<?xml version="1.0" encoding="UTF-8"?>
<svg xmlns="http://www.w3.org/2000/svg" class="SVG-m3r7i9-0 CoOQ" viewBox="0 0 98 25" fill="none">
  <path d="M10.478 5.08612C10.1487 4.67012 9.698 4.36678 9.126 4.17612C8.57133 3.96812 8.04267 3.86412 7.54 3.86412C7.24533 3.86412 6.942 3.89878 6.63 3.96812C6.318 4.03745 6.02333 4.15012 5.746 4.30612C5.46867 4.44478 5.24333 4.63545 5.07 4.87812C4.89667 5.12078 4.81 5.41545 4.81 5.76212C4.81 6.31678 5.018 6.74145 5.434 7.03612C5.85 7.33078 6.37 7.58212 6.994 7.79012C7.63533 7.99812 8.32 8.20612 9.048 8.41412C9.776 8.62212 10.452 8.91678 11.076 9.29812C11.7173 9.67945 12.246 10.1908 12.662 10.8321C13.078 11.4735 13.286 12.3315 13.286 13.4061C13.286 14.4288 13.0953 15.3215 12.714 16.0841C12.3327 16.8468 11.8127 17.4795 11.154 17.9821C10.5127 18.4848 9.75867 18.8575 8.892 19.1001C8.04267 19.3428 7.14133 19.4641 6.188 19.4641C4.992 19.4641 3.88267 19.2821 2.86 18.9181C1.83733 18.5541 0.884 17.9648 0 17.1501L2.886 13.9781C3.302 14.5328 3.822 14.9661 4.446 15.2781C5.08733 15.5728 5.746 15.7201 6.422 15.7201C6.75133 15.7201 7.08067 15.6854 7.41 15.6161C7.75667 15.5294 8.06 15.4081 8.32 15.2521C8.59733 15.0961 8.814 14.8968 8.97 14.6541C9.14333 14.4115 9.23 14.1255 9.23 13.7961C9.23 13.2415 9.01333 12.8081 8.58 12.4961C8.164 12.1668 7.63533 11.8895 6.994 11.6641C6.35267 11.4388 5.65933 11.2135 4.914 10.9881C4.16867 10.7628 3.47533 10.4595 2.834 10.0781C2.19267 9.69678 1.65533 9.19412 1.222 8.57012C0.806 7.94612 0.598 7.12278 0.598 6.10012C0.598 5.11212 0.788667 4.24545 1.17 3.50012C1.56867 2.75478 2.08867 2.13078 2.73 1.62812C3.38867 1.12545 4.14267 0.752783 4.992 0.510117C5.84133 0.250117 6.71667 0.120117 7.618 0.120117C8.658 0.120117 9.66333 0.26745 10.634 0.562116C11.6047 0.856783 12.48 1.35078 13.26 2.04412L10.478 5.08612Z" fill="#147dfa"></path>
  <path d="M27.7217 18.9961H23.9777V17.2801H23.9257C23.787 17.5228 23.605 17.7654 23.3797 18.0081C23.1717 18.2508 22.9117 18.4675 22.5997 18.6581C22.2877 18.8488 21.9324 19.0048 21.5337 19.1261C21.135 19.2474 20.7017 19.3081 20.2337 19.3081C19.2457 19.3081 18.4397 19.1608 17.8157 18.8661C17.209 18.5541 16.7324 18.1294 16.3857 17.5921C16.0564 17.0548 15.831 16.4221 15.7097 15.6941C15.6057 14.9661 15.5537 14.1775 15.5537 13.3281V6.36012H19.4537V12.5481C19.4537 12.9121 19.4624 13.2935 19.4797 13.6921C19.5144 14.0735 19.5924 14.4288 19.7137 14.7581C19.8524 15.0875 20.0517 15.3561 20.3117 15.5641C20.589 15.7721 20.979 15.8761 21.4817 15.8761C21.9844 15.8761 22.3917 15.7894 22.7037 15.6161C23.0157 15.4255 23.2497 15.1828 23.4057 14.8881C23.579 14.5761 23.6917 14.2295 23.7437 13.8481C23.7957 13.4668 23.8217 13.0681 23.8217 12.6521V6.36012H27.7217V18.9961Z" fill="#147dfa"></path>
  <path d="M30.2234 6.36012H34.1234V8.38812H34.1754C34.5914 7.60812 35.0854 7.02745 35.6574 6.64612C36.2294 6.24745 36.9487 6.04812 37.8154 6.04812C38.0407 6.04812 38.266 6.05678 38.4914 6.07412C38.7167 6.09145 38.9247 6.12612 39.1154 6.17812V9.74012C38.838 9.65345 38.5607 9.59278 38.2834 9.55812C38.0234 9.50612 37.746 9.48012 37.4514 9.48012C36.706 9.48012 36.1167 9.58412 35.6834 9.79212C35.25 10.0001 34.912 10.2948 34.6694 10.6761C34.444 11.0401 34.2967 11.4821 34.2274 12.0021C34.158 12.5221 34.1234 13.0941 34.1234 13.7181V18.9961H30.2234V6.36012Z" fill="#147dfa"></path>
  <path d="M40.9153 6.36012H44.5033V8.02412H44.5553C44.7113 7.79878 44.9106 7.57345 45.1533 7.34812C45.4133 7.10545 45.7079 6.88878 46.0373 6.69812C46.3839 6.50745 46.7566 6.35145 47.1553 6.23012C47.5539 6.10878 47.9786 6.04812 48.4293 6.04812C49.3653 6.04812 50.2146 6.21278 50.9773 6.54212C51.7399 6.85412 52.3899 7.30478 52.9273 7.89412C53.4819 8.46612 53.9066 9.15078 54.2013 9.94812C54.4959 10.7455 54.6433 11.6208 54.6433 12.5741C54.6433 13.4581 54.5046 14.3075 54.2273 15.1221C53.9673 15.9195 53.5859 16.6301 53.0833 17.2541C52.5979 17.8781 51.9999 18.3808 51.2893 18.7621C50.5786 19.1261 49.7726 19.3081 48.8713 19.3081C48.0566 19.3081 47.2939 19.1868 46.5833 18.9441C45.8899 18.6841 45.3179 18.2508 44.8673 17.6441H44.8153V24.9241H40.9153V6.36012ZM44.5033 12.6781C44.5033 13.6315 44.7719 14.4028 45.3093 14.9921C45.8639 15.5815 46.6353 15.8761 47.6233 15.8761C48.6113 15.8761 49.3739 15.5815 49.9113 14.9921C50.4659 14.4028 50.7433 13.6315 50.7433 12.6781C50.7433 11.7248 50.4659 10.9535 49.9113 10.3641C49.3739 9.77478 48.6113 9.48012 47.6233 9.48012C46.6353 9.48012 45.8639 9.77478 45.3093 10.3641C44.7719 10.9535 44.5033 11.7248 44.5033 12.6781Z" fill="#147dfa"></path>
  <path d="M56.6682 6.36012H60.5682V8.38812H60.6202C61.0362 7.60812 61.5302 7.02745 62.1022 6.64612C62.6742 6.24745 63.3935 6.04812 64.2602 6.04812C64.4855 6.04812 64.7109 6.05678 64.9362 6.07412C65.1616 6.09145 65.3695 6.12612 65.5602 6.17812V9.74012C65.2829 9.65345 65.0056 9.59278 64.7282 9.55812C64.4682 9.50612 64.1909 9.48012 63.8962 9.48012C63.1509 9.48012 62.5616 9.58412 62.1282 9.79212C61.6949 10.0001 61.3569 10.2948 61.1142 10.6761C60.8889 11.0401 60.7416 11.4821 60.6722 12.0021C60.6029 12.5221 60.5682 13.0941 60.5682 13.7181V18.9961H56.6682V6.36012Z" fill="#147dfa"></path>
  <path d="M67.0481 6.36012H70.9481V18.9961H67.0481V6.36012ZM66.7361 2.38212C66.7361 1.75812 66.9528 1.22945 67.3861 0.796116C67.8368 0.34545 68.3741 0.120117 68.9981 0.120117C69.6221 0.120117 70.1508 0.34545 70.5841 0.796116C71.0348 1.22945 71.2601 1.75812 71.2601 2.38212C71.2601 3.00612 71.0348 3.54345 70.5841 3.99412C70.1508 4.42745 69.6221 4.64412 68.9981 4.64412C68.3741 4.64412 67.8368 4.42745 67.3861 3.99412C66.9528 3.54345 66.7361 3.00612 66.7361 2.38212Z" fill="#147dfa"></path>
  <path d="M80.64 10.0781C80.068 9.36745 79.314 9.01212 78.378 9.01212C78.0487 9.01212 77.728 9.09012 77.416 9.24612C77.104 9.40212 76.948 9.67078 76.948 10.0521C76.948 10.3641 77.104 10.5981 77.416 10.7541C77.7453 10.8928 78.1527 11.0228 78.638 11.1441C79.1407 11.2481 79.6693 11.3695 80.224 11.5081C80.796 11.6294 81.3247 11.8288 81.81 12.1061C82.3127 12.3835 82.72 12.7648 83.032 13.2501C83.3613 13.7181 83.526 14.3508 83.526 15.1481C83.526 15.9628 83.344 16.6388 82.98 17.1761C82.6334 17.6961 82.1827 18.1208 81.628 18.4501C81.0733 18.7621 80.4493 18.9788 79.756 19.1001C79.0627 19.2388 78.378 19.3081 77.702 19.3081C76.818 19.3081 75.9254 19.1868 75.024 18.9441C74.1227 18.6841 73.36 18.2334 72.736 17.5921L75.102 14.9661C75.466 15.4168 75.8647 15.7635 76.298 16.0061C76.7487 16.2315 77.2687 16.3441 77.858 16.3441C78.3087 16.3441 78.716 16.2835 79.08 16.1621C79.444 16.0234 79.626 15.7808 79.626 15.4341C79.626 15.1048 79.4613 14.8621 79.132 14.7061C78.82 14.5328 78.4127 14.3941 77.91 14.2901C77.4247 14.1688 76.896 14.0475 76.324 13.9261C75.7693 13.7874 75.2407 13.5881 74.738 13.3281C74.2527 13.0681 73.8453 12.7041 73.516 12.2361C73.204 11.7508 73.048 11.1095 73.048 10.3121C73.048 9.56678 73.1953 8.92545 73.49 8.38812C73.802 7.85078 74.2007 7.40878 74.686 7.06212C75.1887 6.71545 75.7607 6.46412 76.402 6.30812C77.0434 6.13478 77.6933 6.04812 78.352 6.04812C79.184 6.04812 80.0247 6.16945 80.874 6.41212C81.7234 6.65478 82.4427 7.08812 83.032 7.71212L80.64 10.0781Z" fill="#147dfa"></path>
  <path d="M97.2252 16.8121C96.6012 17.6094 95.8125 18.2248 94.8592 18.6581C93.9058 19.0914 92.9178 19.3081 91.8952 19.3081C90.9245 19.3081 90.0058 19.1521 89.1392 18.8401C88.2898 18.5281 87.5445 18.0861 86.9032 17.5141C86.2792 16.9248 85.7852 16.2228 85.4212 15.4081C85.0572 14.5934 84.8752 13.6835 84.8752 12.6781C84.8752 11.6728 85.0572 10.7628 85.4212 9.94812C85.7852 9.13345 86.2792 8.44012 86.9032 7.86812C87.5445 7.27878 88.2898 6.82812 89.1392 6.51612C90.0058 6.20412 90.9245 6.04812 91.8952 6.04812C92.7965 6.04812 93.6112 6.20412 94.3392 6.51612C95.0845 6.82812 95.7085 7.27878 96.2112 7.86812C96.7312 8.44012 97.1298 9.13345 97.4072 9.94812C97.6845 10.7628 97.8232 11.6728 97.8232 12.6781V13.9001H88.7752C88.9312 14.6455 89.2692 15.2435 89.7892 15.6941C90.3092 16.1275 90.9505 16.3441 91.7132 16.3441C92.3545 16.3441 92.8918 16.2055 93.3252 15.9281C93.7758 15.6335 94.1658 15.2608 94.4952 14.8101L97.2252 16.8121ZM93.9232 11.2481C93.9405 10.5895 93.7238 10.0261 93.2732 9.55812C92.8225 9.09012 92.2418 8.85612 91.5312 8.85612C91.0978 8.85612 90.7165 8.92545 90.3872 9.06412C90.0578 9.20278 89.7718 9.38478 89.5292 9.61012C89.3038 9.81812 89.1218 10.0695 88.9832 10.3641C88.8618 10.6415 88.7925 10.9361 88.7752 11.2481H93.9232Z" fill="#147dfa"></path>
</svg>
