<?xml version="1.0" encoding="UTF-8"?>
<svg xmlns="http://www.w3.org/2000/svg" width="93" height="27" viewBox="0 0 93 27" fill="none">
  <path d="M65.0503 4.75098C64.8134 4.74275 64.5775 4.78633 64.3592 4.87866C64.141 4.971 63.9456 5.10987 63.7868 5.28551C63.4736 5.61276 63.2991 6.04804 63.2998 6.50054C63.2985 6.95315 63.4731 7.38865 63.7868 7.71556C63.9507 7.88462 64.1471 8.01906 64.3641 8.11087C64.5812 8.20268 64.8146 8.25 65.0503 8.25C65.2861 8.25 65.5194 8.20268 65.7365 8.11087C65.9536 8.01906 66.1499 7.88462 66.3138 7.71556C66.6275 7.38869 66.8017 6.95308 66.7998 6.50054C66.8004 6.04826 66.6264 5.61313 66.3138 5.28551C66.155 5.10996 65.9596 4.97117 65.7413 4.87884C65.5231 4.7865 65.2872 4.74287 65.0503 4.75098Z" fill="#147DFA"></path>
  <path d="M7.54048 12.0085L6.24944 11.8676C4.79775 11.6804 3.55389 11.3523 3.55389 10.2514C3.55389 8.82257 5.28192 8.42421 6.34208 8.42421H6.52668C7.70187 8.42421 9.47634 9.0568 10.6739 10.0404L12.7479 8.09628C11.0893 6.50341 8.80764 5.37915 6.52668 5.37915H6.34208C3.00022 5.42581 0.373347 7.29965 0.373347 10.3681C0.373347 13.2493 2.74716 14.4905 5.83477 14.8653L7.10267 15.0062C8.76113 15.2173 10.0749 15.6149 10.0749 17.0441C10.0749 18.2857 8.85415 19.0353 6.98704 19.0584H6.84864C4.45243 19.0584 2.7933 17.8874 2.07906 16.8569L0.00488281 18.801C1.27196 20.5575 3.62242 22.1036 6.84849 22.1036H6.98667C10.5587 22.0801 13.2551 20.1595 13.2551 17.0441C13.255 13.648 10.8121 12.4063 7.54048 12.0085Z" fill="#147DFA"></path>
  <path d="M23.9744 15.9672C23.9744 18.2157 22.9144 19.2228 21.2548 19.2228C19.6881 19.2228 18.6743 18.4033 18.6743 16.2246V10.228H15.7471V16.4119C15.7471 19.808 17.4528 22.1037 20.7939 22.1037C22.4996 22.1037 23.9515 21.4245 24.735 20.1126L24.9419 21.9397H26.9009V10.228H23.9747L23.9744 15.9672Z" fill="#147DFA"></path>
  <path d="M32.4528 12.758L32.1301 10.2278H30.1719V21.9397H33.0981V16.6462C33.0981 14.4207 34.1815 12.9452 36.3242 12.9452H37.4994V10.064H37.0153C34.8496 10.064 33.3052 11.118 32.4528 12.758Z" fill="#147DFA"></path>
  <path d="M45.4729 10.0879C43.8599 10.0879 42.5001 10.7907 41.6245 11.8915L41.4639 10.2281H39.5049V26.2501H42.4311V20.7921C43.1222 21.5652 44.2287 22.104 45.4726 22.104C48.7451 22.104 51.0723 19.4104 51.0723 16.0842C51.0723 12.7579 48.7453 10.0879 45.4729 10.0879ZM45.1967 19.2229C43.6763 19.2229 42.2239 18.0051 42.2239 16.0842C42.2239 14.1632 43.6763 12.9691 45.1967 12.9691C46.741 12.9691 48.1695 14.1637 48.1695 16.0842C48.1695 18.0047 46.7408 19.2229 45.1963 19.2229H45.1967Z" fill="#147DFA"></path>
  <path d="M56.0524 12.758L55.7296 10.2278H53.7715V21.9397H56.6977V16.6462C56.6977 14.4207 57.7811 12.9452 59.9238 12.9452H61.099V10.064H60.6151C58.4492 10.064 56.9049 11.118 56.0524 12.758Z" fill="#147DFA"></path>
  <path d="M66.5612 10.228H63.6348V21.9397H66.5612V10.228Z" fill="#147DFA"></path>
  <path d="M75.3877 14.7488L74.6048 14.655C73.1755 14.5381 72.6921 14.2571 72.6921 13.6009C72.6921 12.8514 73.4296 12.4535 74.4665 12.4299H74.6503C75.6186 12.4299 77.0241 12.9687 77.7613 13.8117L79.4207 12.2424C78.4068 10.907 76.5405 10.064 74.6279 10.064H74.4434C71.8852 10.0876 69.7657 11.3994 69.7657 13.7886C69.7657 15.8496 71.3557 16.9507 74.0974 17.1846L74.743 17.2553C76.0332 17.3722 76.7243 17.6065 76.7243 18.5201C76.7243 19.3163 75.9869 19.6675 74.9962 19.6675H74.8812C73.4751 19.6675 71.8389 19.0585 71.1478 18.2386L69.4883 19.8316C70.4565 21.1898 72.6459 22.0802 74.9042 22.0802H75.0193C77.877 22.0802 79.6514 20.4873 79.6514 18.4027C79.6516 15.8496 77.7158 14.9128 75.3877 14.7488Z" fill="#147DFA"></path>
  <path d="M87.4629 10.064C83.8678 10.064 81.6553 12.758 81.6553 16.0838C81.6553 19.5039 84.0291 22.0802 87.5322 22.0802C89.5831 22.0802 91.3111 21.1901 92.556 20.2534L91.0117 18.5432C89.9747 19.0819 88.7299 19.3627 87.5323 19.3627C85.9647 19.3627 84.6746 18.4962 84.6746 16.9033H92.7166C93.0394 15.8963 93.0161 14.3035 92.5328 13.2259C91.6575 11.2589 89.9284 10.064 87.4629 10.064ZM84.7898 15.0298C84.8362 13.9055 85.8963 12.7812 87.4631 12.7812C88.5696 12.7812 89.3988 13.3436 89.7904 14.0931C89.9655 14.3735 90.061 14.6976 90.0666 15.0298H84.7898Z" fill="#147DFA"></path>
</svg>
