<svg width="32" height="32" viewBox="0 0 32 32" fill="none" xmlns="http://www.w3.org/2000/svg">
<rect width="32" height="32" rx="16" fill="#0E76A8"/>
<path d="M11.5814 24H8.26429V13.3176H11.5814V24ZM9.92107 11.8604C8.86036 11.8604 8 10.9819 8 9.92111C8 9.4116 8.2024 8.92296 8.56267 8.56268C8.92294 8.2024 9.41157 8 9.92107 8C10.4306 8 10.9192 8.2024 11.2795 8.56268C11.6397 8.92296 11.8421 9.4116 11.8421 9.92111C11.8421 10.9819 10.9814 11.8604 9.92107 11.8604ZM23.9964 24H20.6864V18.7999C20.6864 17.5606 20.6614 15.9712 18.9618 15.9712C17.2371 15.9712 16.9729 17.3177 16.9729 18.7106V24H13.6593V13.3176H16.8407V14.7748H16.8871C17.33 13.9355 18.4118 13.0498 20.0257 13.0498C23.3829 13.0498 24 15.2605 24 18.132V24H23.9964Z" fill="white"/>
</svg>
