<svg width="32" height="32" viewBox="0 0 32 32" fill="none" xmlns="http://www.w3.org/2000/svg">
<rect width="32" height="32" rx="16" fill="#3291DA"/>
<path d="M23.9442 12.0482C23.9569 12.2259 23.9569 12.4036 23.9569 12.5812C23.9569 18 19.8326 24.2437 12.2944 24.2437C9.97209 24.2437 7.81473 23.5711 6 22.4036C6.32996 22.4417 6.64719 22.4544 6.98985 22.4544C8.90607 22.4544 10.6701 21.8072 12.0787 20.7031C10.2767 20.665 8.7665 19.4848 8.24618 17.8604C8.50001 17.8985 8.7538 17.9239 9.02032 17.9239C9.38833 17.9239 9.75638 17.8731 10.099 17.7843C8.22083 17.4036 6.81215 15.7538 6.81215 13.7614V13.7107C7.35782 14.0153 7.99239 14.2056 8.66493 14.231C7.56087 13.4949 6.83754 12.2386 6.83754 10.8172C6.83754 10.0558 7.04055 9.35786 7.3959 8.74871C9.41369 11.236 12.4467 12.8604 15.8477 13.0381C15.7843 12.7335 15.7462 12.4163 15.7462 12.099C15.7462 9.84009 17.5736 8 19.8452 8C21.0254 8 22.0914 8.49492 22.8401 9.29442C23.7665 9.11676 24.6548 8.7741 25.4416 8.30457C25.137 9.25637 24.4898 10.0559 23.6396 10.5634C24.4645 10.4747 25.264 10.2462 26 9.92895C25.4417 10.7411 24.7437 11.4644 23.9442 12.0482Z" fill="white"/>
</svg>
