<svg width="18" height="18" viewBox="0 0 18 18" fill="none" xmlns="http://www.w3.org/2000/svg">
<path fill-rule="evenodd" clip-rule="evenodd" d="M1.22243 6.87867C0.0508566 8.05025 0.0508568 9.94974 1.22243 11.1213L6.87928 16.7782C8.05086 17.9497 9.95035 17.9497 11.1219 16.7782L16.7788 11.1213C17.9504 9.94974 17.9503 8.05025 16.7788 6.87867L11.1219 1.22182C9.95035 0.0502463 8.05086 0.0502467 6.87928 1.22182L1.22243 6.87867ZM9.00095 10.9998C8.73573 10.9998 8.48138 10.8945 8.29384 10.7069C8.10631 10.5194 8.00095 10.265 8.00095 9.99981V4.99981C8.00095 4.73459 8.10631 4.48024 8.29384 4.2927C8.48138 4.10517 8.73573 3.99981 9.00095 3.99981C9.26617 3.99981 9.52052 4.10517 9.70806 4.2927C9.89559 4.48024 10.001 4.73459 10.001 4.99981V9.99981C10.001 10.265 9.89559 10.5194 9.70806 10.7069C9.52052 10.8945 9.26617 10.9998 9.00095 10.9998ZM9.00095 13.9998C8.73573 13.9998 8.48138 13.8945 8.29384 13.7069C8.10631 13.5194 8.00095 13.265 8.00095 12.9998C8.00095 12.7346 8.10631 12.4802 8.29384 12.2927C8.48138 12.1052 8.73573 11.9998 9.00095 11.9998C9.26617 11.9998 9.52052 12.1052 9.70806 12.2927C9.89559 12.4802 10.001 12.7346 10.001 12.9998C10.001 13.265 9.89559 13.5194 9.70806 13.7069C9.52052 13.8945 9.26617 13.9998 9.00095 13.9998Z" fill="#FF3C5A"/>
</svg>
