<?xml version="1.0" encoding="UTF-8"?><svg width="141" height="25" viewBox="0 0 141 25" fill="none" xmlns="http://www.w3.org/2000/svg">
<path d="M10.4793 4.96662C10.1499 4.55057 9.69921 4.2472 9.12714 4.05651C8.5724 3.84848 8.04367 3.74447 7.54094 3.74447C7.24624 3.74447 6.94286 3.77914 6.63083 3.84848C6.31879 3.91782 6.02408 4.0305 5.74672 4.18652C5.46935 4.32521 5.24399 4.51589 5.07063 4.75859C4.89728 5.00129 4.8106 5.29599 4.8106 5.6427C4.8106 6.19744 5.01862 6.62216 5.43468 6.91686C5.85073 7.21157 6.37079 7.46293 6.99487 7.67096C7.63628 7.87898 8.32104 8.08701 9.04913 8.29504C9.77722 8.50306 10.4533 8.79776 11.0774 9.17915C11.7188 9.56053 12.2475 10.0719 12.6636 10.7133C13.0796 11.3548 13.2877 12.2129 13.2877 13.2877C13.2877 14.3105 13.097 15.2032 12.7156 15.966C12.3342 16.7288 11.8141 17.3615 11.1554 17.8642C10.514 18.367 9.75988 18.7397 8.89311 18.9824C8.04367 19.2251 7.14222 19.3464 6.18877 19.3464C4.99262 19.3464 3.88315 19.1644 2.86036 18.8003C1.83756 18.4363 0.88411 17.8469 0 17.0321L2.88636 13.8597C3.30241 14.4145 3.82248 14.8479 4.44655 15.1599C5.08797 15.4546 5.74672 15.6019 6.4228 15.6019C6.75217 15.6019 7.08155 15.5673 7.41092 15.4979C7.75763 15.4113 8.061 15.2899 8.32104 15.1339C8.5984 14.9779 8.8151 14.7785 8.97112 14.5358C9.14447 14.2931 9.23115 14.0071 9.23115 13.6777C9.23115 13.123 9.01446 12.6896 8.58107 12.3775C8.16502 12.0482 7.63628 11.7708 6.99487 11.5454C6.35346 11.3201 5.66004 11.0947 4.91461 10.8694C4.16919 10.644 3.47577 10.3406 2.83435 9.95924C2.19294 9.57786 1.65554 9.07513 1.22215 8.45105C0.8061 7.82698 0.598075 7.00354 0.598075 5.98074C0.598075 4.99262 0.788765 4.12585 1.17015 3.38042C1.56886 2.63499 2.08893 2.01092 2.73034 1.50819C3.38909 1.00546 4.14318 0.632744 4.99262 0.390047C5.84206 0.130015 6.7175 0 7.61895 0C8.65908 0 9.66454 0.147351 10.6353 0.442054C11.6061 0.736758 12.4816 1.23082 13.2617 1.92424L10.4793 4.96662Z" fill="#147DFA"/>
<path d="M27.7251 18.8784H23.9807V17.1621H23.9287C23.79 17.4048 23.608 17.6475 23.3826 17.8902C23.1746 18.1329 22.9145 18.3496 22.6025 18.5403C22.2905 18.731 21.9351 18.887 21.5364 19.0084C21.1377 19.1297 20.7043 19.1904 20.2362 19.1904C19.2481 19.1904 18.442 19.043 17.8179 18.7483C17.2112 18.4363 16.7344 18.0116 16.3877 17.4742C16.0584 16.9368 15.833 16.304 15.7116 15.5759C15.6076 14.8479 15.5556 14.0591 15.5556 13.2096V6.24078H19.4561V12.4296C19.4561 12.7936 19.4648 13.175 19.4821 13.5737C19.5168 13.9551 19.5948 14.3105 19.7161 14.6398C19.8548 14.9692 20.0542 15.2379 20.3142 15.4459C20.5916 15.654 20.9816 15.758 21.4844 15.758C21.9871 15.758 22.3945 15.6713 22.7065 15.4979C23.0186 15.3072 23.2526 15.0645 23.4086 14.7698C23.582 14.4578 23.6946 14.1111 23.7466 13.7297C23.7987 13.3483 23.8247 12.9496 23.8247 12.5336V6.24078H27.7251V18.8784Z" fill="#147DFA"/>
<path d="M30.2271 6.24078H34.1276V8.26903H34.1796C34.5957 7.48893 35.0897 6.90819 35.6618 6.52681C36.2339 6.1281 36.9533 5.92874 37.8201 5.92874C38.0454 5.92874 38.2708 5.93741 38.4962 5.95474C38.7215 5.97208 38.9296 6.00675 39.1202 6.05875V9.6212C38.8429 9.53452 38.5655 9.47385 38.2881 9.43918C38.0281 9.38717 37.7507 9.36117 37.456 9.36117C36.7106 9.36117 36.1212 9.46518 35.6878 9.67321C35.2544 9.88123 34.9164 10.1759 34.6737 10.5573C34.4483 10.9214 34.301 11.3634 34.2316 11.8835C34.1623 12.4035 34.1276 12.9756 34.1276 13.5997V18.8784H30.2271V6.24078Z" fill="#147DFA"/>
<path d="M40.9204 6.24078H44.5088V7.90499H44.5608C44.7168 7.67962 44.9162 7.45426 45.1589 7.2289C45.4189 6.9862 45.7136 6.76951 46.043 6.57882C46.3897 6.38813 46.7624 6.23211 47.1611 6.11076C47.5598 5.98941 47.9846 5.92874 48.4353 5.92874C49.3714 5.92874 50.2208 6.09343 50.9836 6.4228C51.7464 6.73484 52.3965 7.18556 52.9338 7.77497C53.4886 8.34704 53.9133 9.03179 54.208 9.82923C54.5027 10.6267 54.6501 11.5021 54.6501 12.4556C54.6501 13.3397 54.5114 14.1891 54.234 15.0039C53.974 15.8013 53.5926 16.5121 53.0899 17.1361C52.6045 17.7602 52.0064 18.2629 51.2957 18.6443C50.5849 19.0084 49.7788 19.1904 48.8773 19.1904C48.0626 19.1904 47.2998 19.069 46.5891 18.8263C45.8956 18.5663 45.3236 18.1329 44.8728 17.5262H44.8208V24.8071H40.9204V6.24078ZM44.5088 12.5596C44.5088 13.513 44.7775 14.2844 45.3149 14.8739C45.8696 15.4633 46.6411 15.758 47.6292 15.758C48.6173 15.758 49.3801 15.4633 49.9175 14.8739C50.4722 14.2844 50.7496 13.513 50.7496 12.5596C50.7496 11.6061 50.4722 10.8347 49.9175 10.2453C49.3801 9.65587 48.6173 9.36117 47.6292 9.36117C46.6411 9.36117 45.8696 9.65587 45.3149 10.2453C44.7775 10.8347 44.5088 11.6061 44.5088 12.5596Z" fill="#147DFA"/>
<path d="M56.6753 6.24078H60.5758V8.26903H60.6278C61.0438 7.48893 61.5379 6.90819 62.11 6.52681C62.682 6.1281 63.4014 5.92874 64.2682 5.92874C64.4936 5.92874 64.7189 5.93741 64.9443 5.95474C65.1697 5.97208 65.3777 6.00675 65.5684 6.05875V9.6212C65.291 9.53452 65.0136 9.47385 64.7363 9.43918C64.4762 9.38717 64.1989 9.36117 63.9042 9.36117C63.1587 9.36117 62.5693 9.46518 62.136 9.67321C61.7026 9.88123 61.3645 10.1759 61.1218 10.5573C60.8965 10.9214 60.7491 11.3634 60.6798 11.8835C60.6104 12.4035 60.5758 12.9756 60.5758 13.5997V18.8784H56.6753V6.24078Z" fill="#147DFA"/>
<path d="M67.0565 6.24078H70.9569V18.8784H67.0565V6.24078ZM66.7444 2.26228C66.7444 1.6382 66.9611 1.10947 67.3945 0.676083C67.8452 0.225361 68.3826 0 69.0067 0C69.6308 0 70.1595 0.225361 70.5929 0.676083C71.0436 1.10947 71.269 1.6382 71.269 2.26228C71.269 2.88636 71.0436 3.42376 70.5929 3.87448C70.1595 4.30787 69.6308 4.52456 69.0067 4.52456C68.3826 4.52456 67.8452 4.30787 67.3945 3.87448C66.9611 3.42376 66.7444 2.88636 66.7444 2.26228Z" fill="#147DFA"/>
<path d="M80.6501 9.95924C80.078 9.24849 79.3239 8.89311 78.3878 8.89311C78.0584 8.89311 77.7377 8.97112 77.4257 9.12714C77.1136 9.28316 76.9576 9.55186 76.9576 9.93324C76.9576 10.2453 77.1136 10.4793 77.4257 10.6353C77.755 10.774 78.1624 10.904 78.6478 11.0254C79.1505 11.1294 79.6793 11.2507 80.234 11.3894C80.8061 11.5108 81.3348 11.7101 81.8202 11.9875C82.3229 12.2649 82.7303 12.6462 83.0424 13.1316C83.3717 13.5997 83.5364 14.2324 83.5364 15.0299C83.5364 15.8446 83.3544 16.5207 82.9903 17.0581C82.6436 17.5782 82.1929 18.0029 81.6382 18.3323C81.0834 18.6443 80.4594 18.861 79.7659 18.9824C79.0725 19.1211 78.3878 19.1904 77.7117 19.1904C76.8276 19.1904 75.9348 19.069 75.0334 18.8263C74.1319 18.5663 73.3691 18.1156 72.7451 17.4742L75.1114 14.8479C75.4754 15.2986 75.8741 15.6453 76.3075 15.888C76.7582 16.1133 77.2783 16.226 77.8677 16.226C78.3184 16.226 78.7258 16.1654 79.0899 16.044C79.4539 15.9053 79.6359 15.6626 79.6359 15.3159C79.6359 14.9865 79.4712 14.7438 79.1419 14.5878C78.8298 14.4145 78.4224 14.2758 77.9197 14.1718C77.4343 14.0504 76.9056 13.9291 76.3335 13.8077C75.7788 13.669 75.25 13.4697 74.7473 13.2096C74.2619 12.9496 73.8545 12.5856 73.5252 12.1175C73.2131 11.6321 73.0571 10.9907 73.0571 10.1933C73.0571 9.44785 73.2045 8.80643 73.4992 8.26903C73.8112 7.73163 74.2099 7.28958 74.6953 6.94287C75.198 6.59616 75.7701 6.34479 76.4115 6.18877C77.0529 6.01542 77.703 5.92874 78.3618 5.92874C79.1939 5.92874 80.0346 6.05009 80.8841 6.29278C81.7335 6.53548 82.4529 6.96887 83.0424 7.59295L80.6501 9.95924Z" fill="#147DFA"/>
<path d="M97.2373 16.6941C96.6132 17.4915 95.8244 18.1069 94.871 18.5403C93.9175 18.9737 92.9294 19.1904 91.9066 19.1904C90.9358 19.1904 90.017 19.0344 89.1503 18.7223C88.3008 18.4103 87.5554 17.9682 86.914 17.3962C86.2899 16.8068 85.7959 16.1047 85.4318 15.2899C85.0678 14.4751 84.8857 13.565 84.8857 12.5596C84.8857 11.5541 85.0678 10.644 85.4318 9.82923C85.7959 9.01446 86.2899 8.32104 86.914 7.74897C87.5554 7.15956 88.3008 6.70884 89.1503 6.3968C90.017 6.08476 90.9358 5.92874 91.9066 5.92874C92.8081 5.92874 93.6228 6.08476 94.3509 6.3968C95.0963 6.70884 95.7204 7.15956 96.2231 7.74897C96.7432 8.32104 97.1419 9.01446 97.4193 9.82923C97.6967 10.644 97.8354 11.5541 97.8354 12.5596V13.7817H88.7862C88.9422 14.5271 89.2803 15.1252 89.8003 15.5759C90.3204 16.0093 90.9618 16.226 91.7246 16.226C92.366 16.226 92.9034 16.0873 93.3368 15.81C93.7875 15.5153 94.1776 15.1426 94.5069 14.6918L97.2373 16.6941ZM93.9349 11.1294C93.9522 10.4706 93.7355 9.90724 93.2848 9.43918C92.8341 8.97112 92.2533 8.73709 91.5426 8.73709C91.1092 8.73709 90.7278 8.80643 90.3984 8.94512C90.069 9.0838 89.783 9.26582 89.5403 9.49118C89.315 9.69921 89.1329 9.95057 88.9942 10.2453C88.8729 10.5226 88.8036 10.8173 88.7862 11.1294H93.9349Z" fill="#147DFA"/>
<path d="M99.6613 17.2011C99.6613 16.9541 99.7068 16.7201 99.7978 16.4991C99.8888 16.278 100.012 16.0895 100.168 15.9335C100.337 15.7645 100.532 15.6345 100.753 15.5434C100.974 15.4524 101.208 15.4069 101.455 15.4069C101.703 15.4069 101.937 15.4524 102.158 15.5434C102.379 15.6345 102.567 15.7645 102.723 15.9335C102.892 16.0895 103.022 16.278 103.113 16.4991C103.204 16.7201 103.25 16.9541 103.25 17.2011C103.25 17.4482 103.204 17.6822 103.113 17.9032C103.022 18.1243 102.892 18.3193 102.723 18.4883C102.567 18.6443 102.379 18.7678 102.158 18.8589C101.937 18.9499 101.703 18.9954 101.455 18.9954C101.208 18.9954 100.974 18.9499 100.753 18.8589C100.532 18.7678 100.337 18.6443 100.168 18.4883C100.012 18.3193 99.8888 18.1243 99.7978 17.9032C99.7068 17.6822 99.6613 17.4482 99.6613 17.2011Z" fill="#147DFA"/>
<path d="M111.595 12.4621C111.452 12.254 111.25 12.085 110.99 11.955C110.73 11.812 110.451 11.7405 110.152 11.7405C109.41 11.7405 108.832 11.9615 108.416 12.4035C108.013 12.8456 107.811 13.4242 107.811 14.1393C107.811 14.8544 108.013 15.4329 108.416 15.875C108.832 16.317 109.41 16.5381 110.152 16.5381C110.477 16.5381 110.756 16.4666 110.99 16.3235C111.224 16.1805 111.426 16.0115 111.595 15.8165L113.526 17.8447C113.07 18.3128 112.531 18.6443 111.907 18.8394C111.296 19.0214 110.711 19.1124 110.152 19.1124C109.424 19.1124 108.734 18.9954 108.084 18.7613C107.447 18.5273 106.888 18.1958 106.407 17.7667C105.939 17.3247 105.569 16.7981 105.295 16.187C105.022 15.5759 104.886 14.8934 104.886 14.1393C104.886 13.3852 105.022 12.7026 105.295 12.0915C105.569 11.4804 105.939 10.9604 106.407 10.5313C106.888 10.0893 107.447 9.75122 108.084 9.51719C108.734 9.28316 109.424 9.16614 110.152 9.16614C110.711 9.16614 111.296 9.26366 111.907 9.45868C112.531 9.6407 113.07 9.96574 113.526 10.4338L111.595 12.4621Z" fill="#147DFA"/>
<path d="M114.041 14.1393C114.041 13.3852 114.177 12.7026 114.45 12.0915C114.723 11.4804 115.094 10.9604 115.562 10.5313C116.043 10.0893 116.602 9.75122 117.239 9.51719C117.889 9.28316 118.578 9.16614 119.306 9.16614C120.035 9.16614 120.717 9.28316 121.354 9.51719C122.004 9.75122 122.563 10.0893 123.031 10.5313C123.512 10.9604 123.89 11.4804 124.163 12.0915C124.436 12.7026 124.572 13.3852 124.572 14.1393C124.572 14.8934 124.436 15.5759 124.163 16.187C123.89 16.7981 123.512 17.3247 123.031 17.7667C122.563 18.1958 122.004 18.5273 121.354 18.7613C120.717 18.9954 120.035 19.1124 119.306 19.1124C118.578 19.1124 117.889 18.9954 117.239 18.7613C116.602 18.5273 116.043 18.1958 115.562 17.7667C115.094 17.3247 114.723 16.7981 114.45 16.187C114.177 15.5759 114.041 14.8934 114.041 14.1393ZM116.966 14.1393C116.966 14.8544 117.168 15.4329 117.571 15.875C117.987 16.317 118.565 16.5381 119.306 16.5381C120.048 16.5381 120.62 16.317 121.023 15.875C121.439 15.4329 121.647 14.8544 121.647 14.1393C121.647 13.4242 121.439 12.8456 121.023 12.4035C120.62 11.9615 120.048 11.7405 119.306 11.7405C118.565 11.7405 117.987 11.9615 117.571 12.4035C117.168 12.8456 116.966 13.4242 116.966 14.1393Z" fill="#147DFA"/>
<path d="M126.1 9.40017H128.909V10.6873H128.948C129.039 10.5053 129.169 10.3233 129.338 10.1413C129.507 9.95924 129.708 9.79672 129.942 9.6537C130.176 9.51069 130.443 9.39367 130.742 9.30266C131.041 9.21165 131.366 9.16614 131.717 9.16614C132.38 9.16614 132.965 9.30266 133.472 9.57569C133.992 9.84873 134.382 10.2778 134.642 10.8629C134.98 10.2518 135.39 9.81622 135.871 9.55619C136.352 9.29616 136.944 9.16614 137.646 9.16614C138.283 9.16614 138.816 9.27666 139.245 9.49768C139.687 9.70571 140.031 9.99825 140.278 10.3753C140.538 10.7393 140.72 11.1749 140.824 11.682C140.942 12.176 141 12.7091 141 13.2812V18.8784H138.075V13.3592C138.075 12.9171 137.977 12.5401 137.782 12.228C137.6 11.903 137.269 11.7405 136.787 11.7405C136.449 11.7405 136.163 11.799 135.929 11.916C135.708 12.02 135.526 12.1695 135.383 12.3645C135.253 12.5596 135.156 12.7871 135.091 13.0471C135.039 13.3072 135.013 13.5802 135.013 13.8662V18.8784H132.087V13.8662C132.087 13.6972 132.081 13.4892 132.068 13.2422C132.055 12.9951 132.009 12.7611 131.931 12.5401C131.853 12.319 131.723 12.1305 131.541 11.9745C131.372 11.8185 131.119 11.7405 130.781 11.7405C130.404 11.7405 130.098 11.812 129.864 11.955C129.63 12.085 129.448 12.267 129.318 12.5011C129.201 12.7221 129.123 12.9756 129.084 13.2617C129.045 13.5477 129.026 13.8467 129.026 14.1588V18.8784H126.1V9.40017Z" fill="#147DFA"/>
</svg>
