<svg width="10" height="10" viewBox="0 0 10 10" fill="none" xmlns="http://www.w3.org/2000/svg">
<path d="M1.71635 0.292487C1.32691 -0.0974957 0.695505 -0.0974957 0.306067 0.292487C-0.0833705 0.68247 -0.0833705 1.31476 0.306067 1.70474L3.58973 4.993L0.292078 8.29526C-0.0973591 8.68524 -0.0973595 9.31753 0.292078 9.70751C0.681516 10.0975 1.31292 10.0975 1.70236 9.70751L5.00001 6.40525L8.29764 9.7075C8.68708 10.0975 9.31848 10.0975 9.70792 9.7075C10.0974 9.31752 10.0974 8.68523 9.70792 8.29525L6.41028 4.993L9.69393 1.70475C10.0834 1.31477 10.0834 0.682481 9.69393 0.292499C9.3045 -0.097484 8.67309 -0.097484 8.28366 0.292499L5.00001 3.58074L1.71635 0.292487Z" fill="#7A869A"/>
</svg>
