<svg width="14" height="18" viewBox="0 0 14 18" fill="none" xmlns="http://www.w3.org/2000/svg">
<path d="M6.99998 0.666748C3.49998 0.666748 0.333313 3.35008 0.333313 7.50008C0.333313 10.1501 2.37498 13.2667 6.44998 16.8584C6.76665 17.1334 7.24165 17.1334 7.55831 16.8584C11.625 13.2667 13.6666 10.1501 13.6666 7.50008C13.6666 3.35008 10.5 0.666748 6.99998 0.666748ZM6.99998 9.00008C6.08331 9.00008 5.33331 8.25008 5.33331 7.33342C5.33331 6.41675 6.08331 5.66675 6.99998 5.66675C7.91665 5.66675 8.66665 6.41675 8.66665 7.33342C8.66665 8.25008 7.91665 9.00008 6.99998 9.00008Z" fill="#147DFA"/>
</svg>
