<svg width="16" height="16" viewBox="0 0 16 16" fill="none" xmlns="http://www.w3.org/2000/svg">
<path fill-rule="evenodd" clip-rule="evenodd" d="M10.9137 12.6815C9.84585 13.4084 8.55588 13.8333 7.16667 13.8333C3.48477 13.8333 0.5 10.8486 0.5 7.16667C0.5 3.48477 3.48477 0.5 7.16667 0.5C10.8486 0.5 13.8333 3.48477 13.8333 7.16667C13.8333 8.55588 13.4084 9.84585 12.6815 10.9137L15.5505 13.7828C16.0387 14.2709 16.0387 15.0624 15.5505 15.5505C15.0624 16.0387 14.2709 16.0387 13.7828 15.5505L10.9137 12.6815ZM11.3333 7.16667C11.3333 9.46785 9.46785 11.3333 7.16667 11.3333C4.86548 11.3333 3 9.46785 3 7.16667C3 4.86548 4.86548 3 7.16667 3C9.46785 3 11.3333 4.86548 11.3333 7.16667Z" fill="#147DFA"/>
</svg>
